%FSTAX23Y23*%
%MOIN*%
%SFA1B1*%

%IPPOS*%
%ADD15R,0.078740X0.078740*%
%ADD16C,0.078740*%
%ADD18R,0.057087X0.057087*%
%ADD19C,0.057087*%
%ADD31C,0.061024*%
%ADD32R,0.061024X0.061024*%
%ADD39C,0.078866*%
%ADD40R,0.078866X0.078866*%
%ADD41C,0.055244*%
%ADD42C,0.067843*%
%ADD43C,0.058000*%
%ADD44R,0.067843X0.067843*%
%ADD45C,0.059181*%
%ADD46R,0.059181X0.059181*%
%ADD47O,0.069024X0.031622*%
%ADD48R,0.067055X0.067055*%
%ADD49C,0.067055*%
%ADD50C,0.059181*%
%ADD51C,0.063118*%
%ADD52R,0.055244X0.055244*%
%ADD53R,0.074929X0.074929*%
%ADD54C,0.074929*%
%ADD55C,0.058000*%
%LNpcb_en1093_soldermask_top-1*%
%LPD*%
G54D15*
X01081Y00238D03*
X00401Y00933D03*
X01081D03*
Y01648D03*
X01756Y00933D03*
G54D16*
X01081Y00731D03*
X01278Y00238D03*
Y00731D03*
X00598Y01426D03*
Y00933D03*
X00401Y01426D03*
X01278D03*
Y00933D03*
X01081Y01426D03*
X01278Y02141D03*
Y01648D03*
X01081Y02141D03*
X01953Y01426D03*
Y00933D03*
X01756Y01426D03*
G54D18*
X0173Y00495D03*
G54D19*
X0173Y00595D03*
G54D31*
X00337Y00155D03*
X0016D03*
X00337Y0041D03*
G54D32*
X0016Y0041D03*
G54D39*
X02525Y02115D03*
X02625D03*
X02725D03*
X0039Y00675D03*
X0069D03*
X0059D03*
X0049D03*
X0051Y00175D03*
X0061D03*
X0071D03*
G54D40*
X02825Y02115D03*
X0079Y00675D03*
X0081Y00175D03*
G54D41*
X0201Y01895D03*
X0171D03*
X0053Y0178D03*
Y0208D03*
X02Y0215D03*
X017D03*
X00225Y0185D03*
Y0195D03*
G54D42*
X02345Y00598D03*
Y00362D03*
Y0048D03*
Y00716D03*
Y00835D03*
G54D43*
X02422Y00126D03*
Y00953D03*
G54D44*
X02345Y00244D03*
G54D45*
X0298Y0172D03*
X02315Y01995D03*
Y01565D03*
Y01345D03*
G54D46*
X0298Y0192D03*
X02315Y02195D03*
Y01765D03*
Y01145D03*
G54D47*
X00065Y02282D03*
Y0008D03*
X00835Y0118D03*
X01545D03*
Y0202D03*
X03052Y0228D03*
X03055Y0008D03*
G54D48*
X02915Y0153D03*
X0262Y0183D03*
G54D49*
X02915Y0143D03*
Y0133D03*
Y0123D03*
Y0113D03*
Y0103D03*
Y0093D03*
Y0083D03*
Y0073D03*
Y0063D03*
Y0053D03*
Y0043D03*
Y0033D03*
Y0023D03*
X02615Y0153D03*
Y0143D03*
Y0133D03*
Y0123D03*
Y0113D03*
Y0103D03*
Y0093D03*
Y0083D03*
Y0073D03*
Y0063D03*
Y0053D03*
Y0043D03*
Y0033D03*
Y0023D03*
X0272Y0183D03*
G54D50*
X0305Y00603D03*
Y00726D03*
G54D51*
X0262Y00085D03*
X0292D03*
X01445Y00095D03*
X0198Y0079D03*
Y0049D03*
X01145Y00095D03*
G54D52*
X00225Y0205D03*
G54D53*
X0198Y00165D03*
G54D54*
X0188Y00165D03*
X0178D03*
G54D55*
X02229Y00775D03*
X02899Y01711D03*
M02*