%FSTAX23Y23*%
%MOIN*%
%SFA1B1*%

%IPPOS*%
%ADD10C,0.015000*%
%ADD11C,0.020000*%
%ADD12C,0.010000*%
%ADD13C,0.070866*%
%ADD14R,0.070866X0.070866*%
%ADD15R,0.078740X0.078740*%
%ADD16C,0.078740*%
%ADD17C,0.047244*%
%ADD18R,0.057087X0.057087*%
%ADD19C,0.057087*%
%ADD20C,0.059843*%
%ADD21C,0.050000*%
%ADD22R,0.059843X0.059843*%
%ADD23C,0.051181*%
%ADD24R,0.051181X0.051181*%
%ADD25O,0.061024X0.023622*%
%ADD26R,0.059055X0.059055*%
%ADD27C,0.059055*%
%ADD28C,0.051181*%
%ADD29C,0.055118*%
%ADD30R,0.047244X0.047244*%
%ADD31C,0.061024*%
%ADD32R,0.061024X0.061024*%
%ADD33R,0.066929X0.066929*%
%ADD34C,0.066929*%
%ADD35C,0.050000*%
%LNpcb_en1093_copper_signal_top-1*%
%LPD*%
G36*
X-00005Y0237D02*
X0315D01*
Y0002*
X03142Y00019*
X03135Y00014*
X03135Y00014*
X0313Y00007*
X03129Y0*
X0272*
X0272Y00005*
X02721Y00005*
X02729Y00011*
X02848Y00129*
X02853Y00137*
X02855Y00147*
Y00834*
X02868Y00847*
X02872Y00844*
X02871Y00841*
X0287Y0083*
X02871Y00818*
X02876Y00807*
X02883Y00798*
X02892Y00791*
X02903Y00786*
X02915Y00785*
X02926Y00786*
X02937Y00791*
X02946Y00798*
X02953Y00807*
X02958Y00818*
X02959Y0083*
X02958Y00841*
X02953Y00852*
X02946Y00861*
X02937Y00868*
X02926Y00873*
X02915Y00874*
X02903Y00873*
X029Y00872*
X02897Y00876*
X02907Y00886*
X02915Y00885*
X02926Y00886*
X02937Y00891*
X02946Y00898*
X02953Y00907*
X02958Y00918*
X02959Y0093*
X02958Y00941*
X02953Y00952*
X02946Y00961*
X02937Y00968*
X02926Y00973*
X02915Y00974*
X02903Y00973*
X02892Y00968*
X02883Y00961*
X02876Y00952*
X02871Y00941*
X0287Y0093*
X02871Y00922*
X02814Y00865*
X02809Y00868*
Y01392*
X02871Y01453*
X02875Y0145*
X02871Y01441*
X0287Y0143*
X02871Y01418*
X02876Y01407*
X02883Y01398*
X02892Y01391*
X02903Y01386*
X02915Y01385*
X02926Y01386*
X02937Y01391*
X0294Y01393*
X02945Y01391*
Y01368*
X0294Y01366*
X02937Y01368*
X02926Y01373*
X02915Y01374*
X02903Y01373*
X02892Y01368*
X02883Y01361*
X02876Y01352*
X02871Y01341*
X0287Y0133*
X02871Y01318*
X02876Y01307*
X02883Y01298*
X02892Y01291*
X02903Y01286*
X02915Y01285*
X02926Y01286*
X02937Y01291*
X0294Y01293*
X02945Y01291*
Y01268*
X0294Y01266*
X02937Y01268*
X02926Y01273*
X02915Y01274*
X02903Y01273*
X02892Y01268*
X02883Y01261*
X02876Y01252*
X02871Y01241*
X0287Y0123*
X02871Y01218*
X02876Y01207*
X02883Y01198*
X02892Y01191*
X02903Y01186*
X02915Y01185*
X02926Y01186*
X02935Y0119*
X02938Y01186*
X02926Y01173*
X02915Y01174*
X02903Y01173*
X02892Y01168*
X02883Y01161*
X02876Y01152*
X02871Y01141*
X0287Y0113*
X02871Y01118*
X02876Y01107*
X02883Y01098*
X02892Y01091*
X02903Y01086*
X02915Y01085*
X02926Y01086*
X02937Y01091*
X02946Y01098*
X02953Y01107*
X02958Y01118*
X02959Y0113*
X02958Y01141*
X02984Y01166*
X02989Y01174*
X0299Y01183*
Y01642*
X02989Y0165*
X02984Y01658*
X02965Y01676*
X02968Y0168*
X02969Y0168*
X0298Y01679*
X0299Y0168*
X03Y01684*
X03001Y01685*
X03006Y01683*
Y00835*
X0297Y008*
X02965Y00792*
X02964Y00784*
Y00736*
X02959Y00736*
X02958Y00741*
X02953Y00752*
X02946Y00761*
X02937Y00768*
X02926Y00773*
X02915Y00774*
X02903Y00773*
X02892Y00768*
X02883Y00761*
X02876Y00752*
X02871Y00741*
X0287Y0073*
X02871Y00718*
X02876Y00707*
X02883Y00698*
X02892Y00691*
X02903Y00686*
X02915Y00685*
X02926Y00686*
X02935Y0069*
X02938Y00686*
X02926Y00673*
X02915Y00674*
X02903Y00673*
X02892Y00668*
X02883Y00661*
X02876Y00652*
X02871Y00641*
X0287Y0063*
X02871Y00618*
X02876Y00607*
X02883Y00598*
X02892Y00591*
X02903Y00586*
X02915Y00585*
X02926Y00586*
X02937Y00591*
X02946Y00598*
X02953Y00607*
X02958Y00618*
X02959Y0063*
X02958Y00641*
X03003Y00685*
X03008Y00693*
X03009Y00702*
Y00703*
X03013Y00704*
X03014Y00705*
X03021Y00697*
X03029Y0069*
X03039Y00686*
X0305Y00685*
X0306Y00686*
X0307Y0069*
X03078Y00697*
X03085Y00705*
X03089Y00715*
X0309Y00726*
X03089Y00736*
X03085Y00746*
X03081Y00751*
Y02151*
X0308Y02159*
X03075Y02167*
X03013Y02229*
X03016Y02232*
X03019Y0223*
X03029Y02224*
X03041Y02221*
X03052Y0222*
X03064Y02221*
X03075Y02224*
X03085Y0223*
X03094Y02237*
X03102Y02246*
X03107Y02257*
X03111Y02268*
X03112Y0228*
X03111Y02291*
X03107Y02302*
X03102Y02313*
X03094Y02322*
X03085Y02329*
X03075Y02335*
X03064Y02338*
X03052Y02339*
X03041Y02338*
X03029Y02335*
X03019Y02329*
X0301Y02322*
X03003Y02313*
X02997Y02302*
X02994Y02291*
X02993Y0228*
X02994Y02268*
X02997Y02257*
X03003Y02246*
X03005Y02243*
X03001Y0224*
X02921Y02321*
X02913Y02326*
X02905Y02327*
X02593*
X02584Y02326*
X02576Y02321*
X02428Y02173*
X02423Y02165*
X02422Y02157*
Y01284*
X02323Y01185*
X02292*
X0229Y0119*
X0238Y01279*
X02385Y01287*
X02386Y01296*
Y01946*
X02385Y01954*
X0238Y01962*
X02354Y01987*
X02355Y01995*
X02354Y02005*
X0235Y02015*
X02343Y02023*
X02335Y0203*
X02325Y02034*
X02315Y02035*
X02304Y02034*
X02294Y0203*
X02293Y0203*
X02289Y02032*
Y02133*
X0231Y02154*
X02355*
Y02235*
X02274*
Y0219*
X02245Y02162*
X0224Y02153*
X02238Y02144*
Y01816*
X0224Y01806*
X02245Y01797*
X02274Y01769*
Y0176*
X02245Y01732*
X0224Y01723*
X02238Y01714*
Y01396*
X0224Y01386*
X02245Y01377*
X02274Y01349*
X02274Y01345*
X02275Y01334*
X02279Y01324*
X02286Y01316*
X02294Y01309*
X02304Y01305*
X02315Y01304*
X02325Y01305*
X02333Y01308*
X02338Y01306*
X02338Y01305*
X02339Y01303*
X02212Y01177*
X02207Y01169*
X02206Y01161*
Y00807*
X022Y00803*
X02194Y00795*
X0219Y00785*
X02188Y00775*
X0219Y00764*
X02194Y00754*
X022Y00746*
X02208Y0074*
X02218Y00736*
X02229Y00734*
X02239Y00736*
X02249Y0074*
X02257Y00746*
X02263Y00754*
X02267Y00764*
X02269Y00775*
X02267Y00785*
X02263Y00795*
X02257Y00803*
X02251Y00807*
Y01151*
X02269Y01169*
X02274Y01167*
Y01104*
X02355*
Y01153*
X02461Y01258*
X02466Y01266*
X02467Y01275*
Y02147*
X02602Y02282*
X02895*
X03036Y02141*
Y01902*
X03031Y01901*
X0302Y01911*
Y0196*
X02939*
Y01879*
X02988*
X03006Y01861*
Y01756*
X03001Y01754*
X03Y01755*
X0299Y01759*
X0298Y0176*
X02969Y01759*
X02959Y01755*
X02951Y01748*
X02944Y0174*
X0294Y0173*
X0294Y01729*
X02935Y01728*
X02933Y01731*
X02927Y01739*
X02919Y01745*
X02909Y01749*
X02899Y01751*
X02888Y01749*
X02878Y01745*
X0287Y01739*
X02864Y01731*
X0286Y01721*
X02858Y01711*
X0286Y017*
X02864Y0169*
X0287Y01682*
X02878Y01676*
X02888Y01672*
X02899Y0167*
X02905Y01671*
X02945Y01632*
Y01574*
X0287*
Y01517*
X0277Y01418*
X02765Y0141*
X02764Y01402*
Y00213*
X0266Y00109*
X02654Y00109*
X0265Y00115*
X02641Y00122*
X02631Y00126*
X0263Y00126*
X02629Y00131*
X02655Y00157*
X02655Y00157*
X02687Y00189*
X02687Y00189*
X02718Y00219*
X02723Y00228*
X02725Y00237*
Y00645*
X02723Y00654*
X02718Y00663*
X02658Y00722*
X02659Y0073*
X02658Y00741*
X02653Y00752*
X02646Y00761*
X02637Y00768*
X02626Y00773*
X02615Y00774*
X02607Y00773*
X02597Y00783*
X026Y00787*
X02603Y00786*
X02615Y00785*
X02626Y00786*
X02637Y00791*
X02646Y00798*
X02653Y00807*
X02658Y00818*
X02659Y0083*
X02658Y00841*
X02653Y00852*
X02646Y00861*
X02637Y00868*
X02626Y00873*
X02615Y00874*
X02603Y00873*
X02592Y00868*
X02583Y00861*
X02576Y00852*
X02571Y00841*
X0257Y0083*
X02571Y00818*
X02572Y00815*
X02568Y00812*
X02555Y00825*
Y0145*
X0256Y01451*
X02571Y01441*
X0257Y0143*
X02571Y01418*
X02576Y01407*
X02583Y01398*
X02592Y01391*
X02603Y01386*
X02615Y01385*
X02626Y01386*
X02637Y01391*
X02646Y01398*
X02653Y01407*
X02658Y01418*
X02659Y0143*
X02658Y01441*
X02653Y01452*
X02646Y01461*
X02637Y01468*
X02626Y01473*
X02615Y01474*
X02603Y01473*
X02591Y01486*
X02594Y0149*
X02603Y01486*
X02615Y01485*
X02626Y01486*
X02637Y01491*
X02646Y01498*
X02653Y01507*
X02658Y01518*
X02659Y0153*
X02658Y01541*
X02841Y01723*
X02846Y01731*
X02847Y0174*
Y02064*
X02875*
Y02165*
X02774*
Y0214*
X02769Y02139*
X02769Y0214*
X0276Y0215*
X0275Y02159*
X02738Y02164*
X02725Y02165*
X02711Y02164*
X02699Y02159*
X02689Y0215*
X0268Y0214*
X02677Y02132*
X02672*
X02669Y0214*
X0266Y0215*
X0265Y02159*
X02638Y02164*
X02625Y02165*
X02611Y02164*
X02599Y02159*
X02589Y0215*
X0258Y0214*
X02577Y02132*
X02572*
X02569Y0214*
X0256Y0215*
X0255Y02159*
X02538Y02164*
X02525Y02165*
X02511Y02164*
X02499Y02159*
X02489Y0215*
X0248Y0214*
X02475Y02128*
X02474Y02115*
X02475Y02101*
X0248Y02089*
X02489Y02079*
X02499Y0207*
X02511Y02065*
X02525Y02064*
X02531Y02065*
X02534Y0206*
X02512Y02038*
X02506Y0203*
X02504Y0202*
Y00814*
X02506Y00804*
X02512Y00796*
X02571Y00737*
X0257Y0073*
X02571Y00722*
X02461Y00613*
X02456Y00604*
X02454Y00595*
Y0039*
X02353Y00289*
X023*
Y00235*
X02163Y00099*
X01881*
X01868Y00112*
X0187Y00117*
X0188Y00116*
X01892Y00117*
X01904Y00122*
X01914Y0013*
X01922Y0014*
X01926Y0015*
X01931Y00149*
Y00116*
X02028*
Y00181*
X02081Y00233*
X02086Y00241*
X02088Y0025*
Y02084*
X02086Y02093*
X02081Y02101*
X02038Y02144*
X02038Y0215*
X02037Y0216*
X02033Y02169*
X02027Y02177*
X02019Y02183*
X0201Y02187*
X02Y02188*
X01989Y02187*
X0198Y02183*
X01972Y02177*
X01966Y02169*
X01962Y0216*
X01961Y0215*
X01962Y02139*
X01966Y0213*
X01972Y02122*
X0198Y02116*
X01989Y02112*
X02Y02111*
X02005Y02111*
X02042Y02075*
Y01924*
X0204Y01923*
X02037Y01922*
X02029Y01928*
X0202Y01932*
X0201Y01933*
X01999Y01932*
X0199Y01928*
X01982Y01922*
X01976Y01914*
X01972Y01905*
X01971Y01895*
X01972Y01884*
X01976Y01875*
X01982Y01867*
X0199Y01861*
X01999Y01857*
X0201Y01856*
X0202Y01857*
X02029Y01861*
X02037Y01867*
X0204Y01866*
X02042Y01865*
Y00887*
X02037Y00885*
X02005Y00917*
X02006Y00919*
X02008Y00933*
X02006Y00948*
X02Y00961*
X01992Y00972*
X0198Y00981*
X01978Y00982*
Y01377*
X0198Y01378*
X01992Y01387*
X02Y01398*
X02006Y01411*
X02008Y01426*
X02006Y0144*
X02Y01453*
X01992Y01464*
X0198Y01473*
X01967Y01479*
X01953Y0148*
X01939Y01479*
X01926Y01473*
X01914Y01464*
X01905Y01453*
X019Y0144*
X01898Y01426*
X019Y01411*
X01905Y01398*
X01914Y01387*
X01926Y01378*
X01927Y01377*
Y00982*
X01926Y00981*
X01914Y00972*
X01905Y00961*
X019Y00948*
X01898Y00933*
X019Y00919*
X01905Y00906*
X01914Y00895*
X01926Y00886*
X01939Y0088*
X01953Y00879*
X01967Y0088*
X01969Y00881*
X02007Y00844*
Y00828*
X02002Y00826*
X02001Y00827*
X01991Y00831*
X0198Y00832*
X01968Y00831*
X01958Y00827*
X01949Y0082*
X01943Y00812*
X01759*
X01716Y00855*
Y00879*
X0181*
Y00988*
X01779*
Y01376*
X01783Y01378*
X01795Y01387*
X01804Y01398*
X01809Y01411*
X01811Y01426*
X01809Y0144*
X01804Y01453*
X01795Y01464*
X01783Y01473*
X0177Y01479*
X01756Y0148*
X01742Y01479*
X01729Y01473*
X01721Y01468*
X01716Y0147*
Y01856*
X0172Y01857*
X01729Y01861*
X01737Y01867*
X01743Y01875*
X01747Y01884*
X01748Y01895*
X01747Y01905*
X01743Y01914*
X01737Y01922*
X01729Y01928*
X0172Y01932*
X0171Y01933*
X01699Y01932*
X0169Y01928*
X01682Y01922*
X01676Y01914*
X01672Y01905*
X01671Y01895*
X01671Y01894*
Y00846*
X01672Y00837*
X01677Y00829*
X01733Y00773*
X01741Y00768*
X0175Y00767*
X01943*
X01949Y00759*
X01958Y00752*
X01968Y00748*
X0198Y00747*
X01991Y00748*
X02Y00752*
X02003Y00751*
X02005Y00749*
X02005Y00746*
X01779Y0052*
X01773*
Y00538*
X01712*
X0171Y00543*
X01719Y00552*
X0173Y00551*
X01741Y00552*
X01751Y00556*
X01761Y00563*
X01768Y00573*
X01772Y00583*
X01773Y00595*
X01772Y00606*
X01768Y00616*
X01761Y00626*
X01751Y00633*
X01741Y00637*
X0173Y00638*
X01718Y00637*
X01708Y00633*
X01698Y00626*
X01691Y00616*
X01687Y00606*
X01686Y00595*
X01687Y00584*
X01428Y00326*
X01423Y00318*
X01422Y0031*
Y00131*
X01414Y00125*
X01407Y00116*
X01403Y00106*
X01402Y00095*
X01403Y00083*
X01407Y00073*
X01414Y00064*
X01423Y00057*
X01433Y00053*
X01445Y00052*
X01456Y00053*
X01466Y00057*
X01475Y00064*
X01482Y00073*
X01486Y00083*
X01487Y00095*
X01486Y00106*
X01482Y00116*
X01475Y00125*
X01467Y00131*
Y003*
X01681Y00514*
X01686Y00512*
Y00451*
X01704*
Y00415*
X01706Y00405*
X01711Y00396*
X01854Y00254*
Y00206*
X01845Y00199*
X01837Y00189*
X01832Y00177*
X01832Y00175*
X01827*
X01827Y00177*
X01822Y00189*
X01814Y00199*
X01804Y00207*
X01792Y00212*
X0178Y00213*
X01767Y00212*
X01755Y00207*
X01745Y00199*
X01737Y00189*
X01732Y00177*
X01731Y00165*
X01732Y00152*
X01737Y0014*
X01745Y0013*
X01755Y00122*
X01767Y00117*
X0178Y00116*
X01791Y00117*
X01852Y00055*
X01861Y0005*
X01871Y00048*
X02174*
X02184Y0005*
X02192Y00055*
X02336Y00199*
X02389*
Y00253*
X02498Y00361*
X02503Y00369*
X02505Y00379*
Y00584*
X02568Y00647*
X02572Y00644*
X02571Y00641*
X0257Y0063*
X02571Y00618*
X02576Y00607*
X02583Y00598*
X02592Y00591*
X02603Y00586*
X02615Y00585*
X02626Y00586*
X02637Y00591*
X02646Y00598*
X02653Y00607*
X02658Y00618*
X02659Y0063*
X02658Y00641*
X02657Y00644*
X02661Y00647*
X02674Y00634*
Y00248*
X02663Y00237*
X02658Y00239*
X02658Y00241*
X02653Y00252*
X02646Y00261*
X02637Y00268*
X02626Y00273*
X02615Y00274*
X02603Y00273*
X02592Y00268*
X02583Y00261*
X02576Y00252*
X02571Y00241*
X0257Y0023*
X02571Y00218*
X02576Y00207*
X02583Y00198*
X02592Y00191*
X02603Y00186*
X02605Y00186*
X02607Y00181*
X02584Y00158*
X0258Y00155*
X02549Y00124*
X02543Y00116*
X02543Y00114*
X02543Y00114*
X02541Y00104*
Y00062*
X02543Y00052*
X02548Y00044*
X02581Y00011*
X0259Y00005*
X02591Y00005*
X0259Y0*
X-00004*
X-00005Y0*
X-0001Y00005*
Y02375*
X-00005*
Y0237*
G37*
G36*
X0268Y02089D02*
X02689Y02079D01*
X02699Y0207*
X02702Y02069*
Y01984*
X02703Y01975*
X02708Y01967*
X0275Y01926*
Y01868*
X02745Y01866*
X02742Y01868*
X02731Y01873*
X0272Y01874*
X02708Y01873*
X02697Y01868*
X02688Y01861*
X02681Y01852*
X02676Y01841*
X02675Y0183*
X02676Y01818*
X02681Y01807*
X02688Y01798*
X02697Y01791*
X02708Y01786*
X0272Y01785*
X02731Y01786*
X02742Y01791*
X02745Y01793*
X0275Y01791*
Y01781*
X0256Y01592*
X02555Y01593*
Y02009*
X02611Y02065*
X02625Y02064*
X02638Y02065*
X0265Y0207*
X0266Y02079*
X02669Y02089*
X02672Y02097*
X02677*
X0268Y02089*
G37*
G36*
X02294Y01959D02*
X02304Y01955D01*
X02315Y01954*
X02322Y01955*
X02341Y01936*
Y01805*
X0231*
X02289Y01826*
Y01957*
X02293Y01959*
X02294Y01959*
G37*
G36*
X02341Y01601D02*
X02336Y01599D01*
X02335Y016*
X02325Y01604*
X02315Y01605*
X02304Y01604*
X02294Y016*
X02293Y016*
X02289Y01602*
Y01703*
X0231Y01724*
X02341*
Y01601*
G37*
G36*
X02774Y02089D02*
Y02064D01*
X02802*
Y01749*
X02626Y01573*
X02615Y01574*
X02614Y01576*
X02612Y01579*
X02789Y01755*
X02794Y01763*
X02795Y01772*
Y01936*
X02794Y01944*
X02789Y01952*
X02747Y01993*
Y02069*
X0275Y0207*
X0276Y02079*
X02769Y02089*
X02769Y0209*
X02774Y02089*
G37*
G36*
X02341Y01528D02*
Y01381D01*
X02336Y01379*
X02335Y0138*
X02325Y01384*
X02315Y01385*
X0231Y01385*
X02289Y01406*
Y01527*
X02293Y01529*
X02294Y01529*
X02304Y01525*
X02315Y01524*
X02325Y01525*
X02335Y01529*
X02336Y0153*
X02341Y01528*
G37*
G36*
X01729Y01378D02*
X01733Y01376D01*
Y00988*
X01716*
Y01381*
X01721Y01384*
X01729Y01378*
G37*
G36*
X02042Y00704D02*
Y00259D01*
X01996Y00213*
X01931*
Y0018*
X01926Y00179*
X01922Y00189*
X01914Y00199*
X01905Y00206*
Y00265*
X01903Y00274*
X01898Y00283*
X01755Y00425*
Y00451*
X01773*
Y00469*
X0179*
X01799Y00471*
X01808Y00476*
X02037Y00706*
X02042Y00704*
G37*
G36*
X02804Y00181D02*
Y00158D01*
X02701Y00054*
X02658*
X02655Y00059*
X02657Y00062*
X02668*
X02677Y00063*
X02684Y00068*
X02799Y00183*
X02804Y00181*
G37*
%LNpcb_en1093_copper_signal_top-2*%
%LPC*%
G36*
X00065Y02341D02*
X00053Y0234D01*
X00042Y02337*
X00031Y02331*
X00022Y02324*
X00015Y02315*
X00009Y02305*
X00006Y02293*
X00005Y02282*
X00006Y0227*
X00009Y02259*
X00015Y02249*
X00022Y0224*
X00031Y02232*
X00042Y02227*
X00053Y02223*
X00065Y02222*
X00076Y02223*
X00087Y02227*
X00098Y02232*
X00107Y0224*
X00114Y02249*
X0012Y02259*
X00123Y0227*
X00124Y02282*
X00123Y02293*
X0012Y02305*
X00114Y02315*
X00107Y02324*
X00098Y02331*
X00087Y02337*
X00076Y0234*
X00065Y02341*
G37*
G36*
X017Y02188D02*
X01689Y02187D01*
X0168Y02183*
X01672Y02177*
X01666Y02169*
X01662Y0216*
X01661Y0215*
X01662Y02139*
X01666Y0213*
X01672Y02122*
X0168Y02116*
X01689Y02112*
X017Y02111*
X0171Y02112*
X01719Y02116*
X01727Y02122*
X01733Y0213*
X01737Y02139*
X01738Y0215*
X01737Y0216*
X01733Y02169*
X01727Y02177*
X01719Y02183*
X0171Y02187*
X017Y02188*
G37*
G36*
X00263Y02088D02*
X00186D01*
Y02011*
X00263*
Y02088*
G37*
G36*
X01545Y02079D02*
X01533Y02078D01*
X01522Y02075*
X01511Y02069*
X01502Y02062*
X01495Y02053*
X01489Y02042*
X01486Y02031*
X01485Y0202*
X01486Y02008*
X01489Y01997*
X01495Y01986*
X01502Y01977*
X01511Y0197*
X01522Y01964*
X01533Y01961*
X01545Y0196*
X01556Y01961*
X01567Y01964*
X01578Y0197*
X01587Y01977*
X01594Y01986*
X016Y01997*
X01603Y02008*
X01604Y0202*
X01603Y02031*
X016Y02042*
X01594Y02053*
X01587Y02062*
X01578Y02069*
X01567Y02075*
X01556Y02078*
X01545Y02079*
G37*
G36*
X00225Y01988D02*
X00214Y01987D01*
X00205Y01983*
X00197Y01977*
X00191Y01969*
X00187Y0196*
X00186Y0195*
X00187Y01939*
X00191Y0193*
X00197Y01922*
X00205Y01916*
X00214Y01912*
X00225Y01911*
X00235Y01912*
X00244Y01916*
X00252Y01922*
X00258Y0193*
X00262Y01939*
X00263Y0195*
X00262Y0196*
X00258Y01969*
X00252Y01977*
X00244Y01983*
X00235Y01987*
X00225Y01988*
G37*
G36*
X0053Y02118D02*
X00519Y02117D01*
X0051Y02113*
X00502Y02107*
X00496Y02099*
X00492Y0209*
X00491Y0208*
X00492Y02069*
X00496Y0206*
X00502Y02052*
X0051Y02046*
X00519Y02042*
X0053Y02041*
X00532Y02041*
X00572Y02001*
Y01788*
X00567Y01787*
X00567Y0179*
X00563Y01799*
X00557Y01807*
X00549Y01813*
X0054Y01817*
X0053Y01818*
X00519Y01817*
X0051Y01813*
X00502Y01807*
X00496Y01799*
X00492Y0179*
X00491Y0178*
X00492Y01769*
X00496Y0176*
X00502Y01752*
X00504Y0175*
Y0089*
X00506Y0088*
X00511Y00871*
X00561Y00821*
X0057Y00816*
X0058Y00814*
X00719*
X00764Y00769*
Y00725*
X00739*
Y007*
X00734Y00699*
X00734Y007*
X00725Y0071*
X00715Y00719*
X00703Y00724*
X0069Y00725*
X00676Y00724*
X00664Y00719*
X00654Y0071*
X00645Y007*
X00642Y00692*
X00637*
X00634Y007*
X00625Y0071*
X00615Y00719*
X00603Y00724*
X0059Y00725*
X00576Y00724*
X00574Y00723*
X00492Y00804*
Y01605*
X00491Y01613*
X00486Y01621*
X00263Y01844*
X00263Y0185*
X00262Y0186*
X00258Y01869*
X00252Y01877*
X00244Y01883*
X00235Y01887*
X00225Y01888*
X00214Y01887*
X00205Y01883*
X00197Y01877*
X00191Y01869*
X00187Y0186*
X00186Y0185*
X00187Y01839*
X00191Y0183*
X00197Y01822*
X00205Y01816*
X00214Y01812*
X00225Y01811*
X0023Y01811*
X00447Y01595*
Y01463*
X00442Y01462*
X0044Y01464*
X00428Y01473*
X00415Y01479*
X00401Y0148*
X00387Y01479*
X00374Y01473*
X00362Y01464*
X00354Y01453*
X00348Y0144*
X00346Y01426*
X00348Y01411*
X00354Y01398*
X00362Y01387*
X00374Y01378*
X00378Y01376*
Y00988*
X00347*
Y00879*
X00447*
Y00795*
X00448Y00786*
X00453Y00778*
X00503Y00729*
X00501Y00724*
X0049Y00725*
X00476Y00724*
X00464Y00719*
X00454Y0071*
X00445Y007*
X00442Y00692*
X00437*
X00434Y007*
X00425Y0071*
X00415Y00719*
X00403Y00724*
X0039Y00725*
X00376Y00724*
X00364Y00719*
X00354Y0071*
X00345Y007*
X0034Y00688*
X00339Y00675*
X0034Y00661*
X00345Y00649*
X00354Y00639*
X00364Y0063*
Y00474*
X00345Y00455*
X00337Y00456*
X00325Y00455*
X00314Y0045*
X00304Y00443*
X00297Y00433*
X00292Y00422*
X00291Y0041*
X00292Y00399*
X00297Y00387*
X00304Y00378*
X00311Y00373*
Y00192*
X00304Y00187*
X00297Y00177*
X00292Y00166*
X00291Y00155*
X00292Y00143*
X00297Y00132*
X00304Y00122*
X00314Y00115*
X00325Y0011*
X00337Y00109*
X00349Y0011*
X0036Y00115*
X00369Y00122*
X00376Y00132*
X00381Y00143*
X00383Y00155*
X00381Y00166*
X00376Y00177*
X00369Y00187*
X00362Y00192*
Y00373*
X00369Y00378*
X00376Y00387*
X00381Y00399*
X00383Y0041*
X00381Y00419*
X00408Y00445*
X00413Y00453*
X00415Y00463*
Y0063*
X00425Y00639*
X00434Y00649*
X00437Y00657*
X00442*
X00445Y00649*
X00454Y00639*
X00464Y0063*
X00476Y00625*
X0049Y00624*
X00503Y00625*
X00515Y0063*
X00525Y00639*
X00534Y00649*
X00537Y00657*
X00542*
X00545Y00649*
X00554Y00639*
X00564Y0063*
X00576Y00625*
X0059Y00624*
X00603Y00625*
X00615Y0063*
X00625Y00639*
X00634Y00649*
X00637Y00657*
X00642*
X00645Y00649*
X00654Y00639*
X00664Y0063*
X00676Y00625*
X0069Y00624*
X00703Y00625*
X00715Y0063*
X00725Y00639*
X00734Y00649*
X00734Y0065*
X00739Y00649*
Y00624*
X00764*
Y00445*
X00764Y00444*
X00764Y00443*
X0078Y00229*
X00777Y00225*
X00759*
Y002*
X00754Y00199*
X00754Y002*
X00745Y0021*
X00735Y00219*
X00723Y00224*
X0071Y00225*
X00696Y00224*
X00684Y00219*
X00674Y0021*
X00665Y002*
X00662Y00192*
X00657*
X00654Y002*
X00645Y0021*
X00635Y00219*
X00623Y00224*
X0061Y00225*
X00596Y00224*
X00584Y00219*
X00574Y0021*
X00565Y002*
X00562Y00192*
X00557*
X00554Y002*
X00545Y0021*
X00535Y00219*
X00523Y00224*
X0051Y00225*
X00496Y00224*
X00484Y00219*
X00474Y0021*
X00465Y002*
X0046Y00188*
X00459Y00175*
X0046Y00161*
X00465Y00149*
X00474Y00139*
X00484Y0013*
X00496Y00125*
X0051Y00124*
X00523Y00125*
X00535Y0013*
X00545Y00139*
X00554Y00149*
X00557Y00157*
X00562*
X00565Y00149*
X00574Y00139*
X00584Y0013*
X00596Y00125*
X0061Y00124*
X00623Y00125*
X00635Y0013*
X00645Y00139*
X00654Y00149*
X00657Y00157*
X00662*
X00665Y00149*
X00674Y00139*
X00684Y0013*
X00696Y00125*
X0071Y00124*
X00723Y00125*
X00735Y0013*
X00745Y00139*
X00754Y00149*
X00754Y0015*
X00759Y00149*
Y00124*
X0086*
Y00225*
X00831*
X00815Y00445*
Y00624*
X0084*
Y00725*
X00815*
Y0078*
X00813Y00789*
X00808Y00798*
X00748Y00858*
X00739Y00863*
X0073Y00865*
X0059*
X00577Y00878*
X0058Y00882*
X00584Y0088*
X00598Y00879*
X00612Y0088*
X00625Y00886*
X00637Y00895*
X00645Y00906*
X00651Y00919*
X00653Y00933*
X00651Y00948*
X00645Y00961*
X00637Y00972*
X00625Y00981*
X00623Y00982*
Y01377*
X00625Y01378*
X00637Y01387*
X00645Y01398*
X00651Y01411*
X00653Y01426*
X00651Y0144*
X00645Y01453*
X00637Y01464*
X00625Y01473*
X00623Y01474*
Y02011*
X00621Y02021*
X00616Y02029*
X00568Y02077*
X00568Y0208*
X00567Y0209*
X00563Y02099*
X00557Y02107*
X00549Y02113*
X0054Y02117*
X0053Y02118*
G37*
G36*
X01081Y02195D02*
X01067Y02194D01*
X01054Y02188*
X01042Y02179*
X01034Y02168*
X01028Y02155*
X01026Y02141*
X01028Y02126*
X01034Y02113*
X01042Y02102*
X01054Y02093*
X01058Y02091*
Y01703*
X01027*
Y01594*
X01135*
Y01703*
X01104*
Y02091*
X01108Y02093*
X0112Y02102*
X01129Y02113*
X01134Y02126*
X01136Y02141*
X01134Y02155*
X01129Y02168*
X0112Y02179*
X01108Y02188*
X01095Y02194*
X01081Y02195*
G37*
G36*
X02615Y01374D02*
X02603Y01373D01*
X02592Y01368*
X02583Y01361*
X02576Y01352*
X02571Y01341*
X0257Y0133*
X02571Y01318*
X02576Y01307*
X02583Y01298*
X02592Y01291*
X02603Y01286*
X02615Y01285*
X02626Y01286*
X02637Y01291*
X02646Y01298*
X02653Y01307*
X02658Y01318*
X02659Y0133*
X02658Y01341*
X02653Y01352*
X02646Y01361*
X02637Y01368*
X02626Y01373*
X02615Y01374*
G37*
G36*
Y01274D02*
X02603Y01273D01*
X02592Y01268*
X02583Y01261*
X02576Y01252*
X02571Y01241*
X0257Y0123*
X02571Y01218*
X02576Y01207*
X02583Y01198*
X02592Y01191*
X02603Y01186*
X02615Y01185*
X02626Y01186*
X02637Y01191*
X02646Y01198*
X02653Y01207*
X02658Y01218*
X02659Y0123*
X02658Y01241*
X02653Y01252*
X02646Y01261*
X02637Y01268*
X02626Y01273*
X02615Y01274*
G37*
G36*
X01545Y01239D02*
X01533Y01238D01*
X01522Y01235*
X01511Y01229*
X01502Y01222*
X01495Y01213*
X01489Y01202*
X01486Y01191*
X01485Y0118*
X01486Y01168*
X01489Y01157*
X01495Y01146*
X01502Y01137*
X01511Y0113*
X01522Y01124*
X01533Y01121*
X01545Y0112*
X01556Y01121*
X01567Y01124*
X01578Y0113*
X01587Y01137*
X01594Y01146*
X016Y01157*
X01603Y01168*
X01604Y0118*
X01603Y01191*
X016Y01202*
X01594Y01213*
X01587Y01222*
X01578Y01229*
X01567Y01235*
X01556Y01238*
X01545Y01239*
G37*
G36*
X00835D02*
X00823Y01238D01*
X00812Y01235*
X00801Y01229*
X00792Y01222*
X00785Y01213*
X00779Y01202*
X00776Y01191*
X00775Y0118*
X00776Y01168*
X00779Y01157*
X00785Y01146*
X00792Y01137*
X00801Y0113*
X00812Y01124*
X00823Y01121*
X00835Y0112*
X00846Y01121*
X00857Y01124*
X00868Y0113*
X00877Y01137*
X00884Y01146*
X0089Y01157*
X00893Y01168*
X00894Y0118*
X00893Y01191*
X0089Y01202*
X00884Y01213*
X00877Y01222*
X00868Y01229*
X00857Y01235*
X00846Y01238*
X00835Y01239*
G37*
G36*
X02615Y01174D02*
X02603Y01173D01*
X02592Y01168*
X02583Y01161*
X02576Y01152*
X02571Y01141*
X0257Y0113*
X02571Y01118*
X02576Y01107*
X02583Y01098*
X02592Y01091*
X02603Y01086*
X02615Y01085*
X02626Y01086*
X02637Y01091*
X02646Y01098*
X02653Y01107*
X02658Y01118*
X02659Y0113*
X02658Y01141*
X02653Y01152*
X02646Y01161*
X02637Y01168*
X02626Y01173*
X02615Y01174*
G37*
G36*
X02915Y01074D02*
X02903Y01073D01*
X02892Y01068*
X02883Y01061*
X02876Y01052*
X02871Y01041*
X0287Y0103*
X02871Y01018*
X02876Y01007*
X02883Y00998*
X02892Y00991*
X02903Y00986*
X02915Y00985*
X02926Y00986*
X02937Y00991*
X02946Y00998*
X02953Y01007*
X02958Y01018*
X02959Y0103*
X02958Y01041*
X02953Y01052*
X02946Y01061*
X02937Y01068*
X02926Y01073*
X02915Y01074*
G37*
G36*
X02615D02*
X02603Y01073D01*
X02592Y01068*
X02583Y01061*
X02576Y01052*
X02571Y01041*
X0257Y0103*
X02571Y01018*
X02576Y01007*
X02583Y00998*
X02592Y00991*
X02603Y00986*
X02615Y00985*
X02626Y00986*
X02637Y00991*
X02646Y00998*
X02653Y01007*
X02658Y01018*
X02659Y0103*
X02658Y01041*
X02653Y01052*
X02646Y01061*
X02637Y01068*
X02626Y01073*
X02615Y01074*
G37*
G36*
X02422Y00998D02*
X0241Y00996D01*
X02399Y00992*
X0239Y00985*
X02382Y00975*
X02378Y00964*
X02376Y00953*
X02378Y00941*
X02382Y0093*
X0239Y00921*
X02399Y00913*
X0241Y00909*
X02422Y00907*
X02433Y00909*
X02444Y00913*
X02454Y00921*
X02461Y0093*
X02466Y00941*
X02467Y00953*
X02466Y00964*
X02461Y00975*
X02454Y00985*
X02444Y00992*
X02433Y00996*
X02422Y00998*
G37*
G36*
X02615Y00974D02*
X02603Y00973D01*
X02592Y00968*
X02583Y00961*
X02576Y00952*
X02571Y00941*
X0257Y0093*
X02571Y00918*
X02576Y00907*
X02583Y00898*
X02592Y00891*
X02603Y00886*
X02615Y00885*
X02626Y00886*
X02637Y00891*
X02646Y00898*
X02653Y00907*
X02658Y00918*
X02659Y0093*
X02658Y00941*
X02653Y00952*
X02646Y00961*
X02637Y00968*
X02626Y00973*
X02615Y00974*
G37*
G36*
X01081Y0148D02*
X01067Y01479D01*
X01054Y01473*
X01042Y01464*
X01034Y01453*
X01028Y0144*
X01026Y01426*
X01028Y01411*
X01034Y01398*
X01042Y01387*
X01054Y01378*
X01058Y01376*
Y00988*
X01027*
Y00879*
X01135*
Y00988*
X01104*
Y01376*
X01108Y01378*
X0112Y01387*
X01129Y01398*
X01134Y01411*
X01136Y01426*
X01134Y0144*
X01129Y01453*
X0112Y01464*
X01108Y01473*
X01095Y01479*
X01081Y0148*
G37*
G36*
X02345Y0088D02*
X02333Y00878D01*
X02322Y00874*
X02312Y00867*
X02305Y00857*
X02301Y00846*
X02299Y00835*
X02301Y00823*
X02305Y00812*
X02312Y00802*
X02322Y00795*
X02333Y00791*
X02345Y00789*
X02356Y00791*
X02367Y00795*
X02377Y00802*
X02384Y00812*
X02388Y00823*
X0239Y00835*
X02388Y00846*
X02384Y00857*
X02377Y00867*
X02367Y00874*
X02356Y00878*
X02345Y0088*
G37*
G36*
Y00762D02*
X02333Y0076D01*
X02322Y00756*
X02312Y00748*
X02305Y00739*
X02301Y00728*
X02299Y00716*
X02301Y00705*
X02305Y00694*
X02312Y00684*
X02322Y00677*
X02333Y00673*
X02345Y00671*
X02356Y00673*
X02367Y00677*
X02377Y00684*
X02384Y00694*
X02388Y00705*
X0239Y00716*
X02388Y00728*
X02384Y00739*
X02377Y00748*
X02367Y00756*
X02356Y0076*
X02345Y00762*
G37*
G36*
X0305Y00644D02*
X03039Y00643D01*
X03029Y00639*
X03021Y00632*
X03014Y00624*
X0301Y00614*
X03009Y00603*
X0301Y00593*
X03014Y00583*
X03021Y00575*
X03029Y00568*
X03039Y00564*
X0305Y00563*
X0306Y00564*
X0307Y00568*
X03078Y00575*
X03085Y00583*
X03089Y00593*
X0309Y00603*
X03089Y00614*
X03085Y00624*
X03078Y00632*
X0307Y00639*
X0306Y00643*
X0305Y00644*
G37*
G36*
X02345Y00644D02*
X02333Y00642D01*
X02322Y00638*
X02312Y0063*
X02305Y00621*
X02301Y0061*
X02299Y00598*
X02301Y00587*
X02305Y00576*
X02312Y00566*
X02322Y00559*
X02333Y00555*
X02345Y00553*
X02356Y00555*
X02367Y00559*
X02377Y00566*
X02384Y00576*
X02388Y00587*
X0239Y00598*
X02388Y0061*
X02384Y00621*
X02377Y0063*
X02367Y00638*
X02356Y00642*
X02345Y00644*
G37*
G36*
X02915Y00574D02*
X02903Y00573D01*
X02892Y00568*
X02883Y00561*
X02876Y00552*
X02871Y00541*
X0287Y0053*
X02871Y00518*
X02876Y00507*
X02883Y00498*
X02892Y00491*
X02903Y00486*
X02915Y00485*
X02926Y00486*
X02937Y00491*
X02946Y00498*
X02953Y00507*
X02958Y00518*
X02959Y0053*
X02958Y00541*
X02953Y00552*
X02946Y00561*
X02937Y00568*
X02926Y00573*
X02915Y00574*
G37*
G36*
X02615D02*
X02603Y00573D01*
X02592Y00568*
X02583Y00561*
X02576Y00552*
X02571Y00541*
X0257Y0053*
X02571Y00518*
X02576Y00507*
X02583Y00498*
X02592Y00491*
X02603Y00486*
X02615Y00485*
X02626Y00486*
X02637Y00491*
X02646Y00498*
X02653Y00507*
X02658Y00518*
X02659Y0053*
X02658Y00541*
X02653Y00552*
X02646Y00561*
X02637Y00568*
X02626Y00573*
X02615Y00574*
G37*
G36*
X02345Y00525D02*
X02333Y00524D01*
X02322Y00519*
X02312Y00512*
X02305Y00503*
X02301Y00492*
X02299Y0048*
X02301Y00468*
X02305Y00458*
X02312Y00448*
X02322Y00441*
X02333Y00436*
X02345Y00435*
X02356Y00436*
X02367Y00441*
X02377Y00448*
X02384Y00458*
X02388Y00468*
X0239Y0048*
X02388Y00492*
X02384Y00503*
X02377Y00512*
X02367Y00519*
X02356Y00524*
X02345Y00525*
G37*
G36*
X02915Y00474D02*
X02903Y00473D01*
X02892Y00468*
X02883Y00461*
X02876Y00452*
X02871Y00441*
X0287Y0043*
X02871Y00418*
X02876Y00407*
X02883Y00398*
X02892Y00391*
X02903Y00386*
X02915Y00385*
X02926Y00386*
X02937Y00391*
X02946Y00398*
X02953Y00407*
X02958Y00418*
X02959Y0043*
X02958Y00441*
X02953Y00452*
X02946Y00461*
X02937Y00468*
X02926Y00473*
X02915Y00474*
G37*
G36*
X02615D02*
X02603Y00473D01*
X02592Y00468*
X02583Y00461*
X02576Y00452*
X02571Y00441*
X0257Y0043*
X02571Y00418*
X02576Y00407*
X02583Y00398*
X02592Y00391*
X02603Y00386*
X02615Y00385*
X02626Y00386*
X02637Y00391*
X02646Y00398*
X02653Y00407*
X02658Y00418*
X02659Y0043*
X02658Y00441*
X02653Y00452*
X02646Y00461*
X02637Y00468*
X02626Y00473*
X02615Y00474*
G37*
G36*
X02345Y00407D02*
X02333Y00406D01*
X02322Y00401*
X02312Y00394*
X02305Y00385*
X02301Y00374*
X02299Y00362*
X02301Y0035*
X02305Y00339*
X02312Y0033*
X02322Y00323*
X02333Y00318*
X02345Y00317*
X02356Y00318*
X02367Y00323*
X02377Y0033*
X02384Y00339*
X02388Y0035*
X0239Y00362*
X02388Y00374*
X02384Y00385*
X02377Y00394*
X02367Y00401*
X02356Y00406*
X02345Y00407*
G37*
G36*
X02915Y00374D02*
X02903Y00373D01*
X02892Y00368*
X02883Y00361*
X02876Y00352*
X02871Y00341*
X0287Y0033*
X02871Y00318*
X02876Y00307*
X02883Y00298*
X02892Y00291*
X02903Y00286*
X02915Y00285*
X02926Y00286*
X02937Y00291*
X02946Y00298*
X02953Y00307*
X02958Y00318*
X02959Y0033*
X02958Y00341*
X02953Y00352*
X02946Y00361*
X02937Y00368*
X02926Y00373*
X02915Y00374*
G37*
G36*
X02615D02*
X02603Y00373D01*
X02592Y00368*
X02583Y00361*
X02576Y00352*
X02571Y00341*
X0257Y0033*
X02571Y00318*
X02576Y00307*
X02583Y00298*
X02592Y00291*
X02603Y00286*
X02615Y00285*
X02626Y00286*
X02637Y00291*
X02646Y00298*
X02653Y00307*
X02658Y00318*
X02659Y0033*
X02658Y00341*
X02653Y00352*
X02646Y00361*
X02637Y00368*
X02626Y00373*
X02615Y00374*
G37*
G36*
X02915Y00274D02*
X02903Y00273D01*
X02892Y00268*
X02883Y00261*
X02876Y00252*
X02871Y00241*
X0287Y0023*
X02871Y00218*
X02876Y00207*
X02883Y00198*
X02892Y00191*
X02903Y00186*
X02915Y00185*
X02926Y00186*
X02937Y00191*
X02946Y00198*
X02953Y00207*
X02958Y00218*
X02959Y0023*
X02958Y00241*
X02953Y00252*
X02946Y00261*
X02937Y00268*
X02926Y00273*
X02915Y00274*
G37*
G36*
X01081Y00785D02*
X01067Y00784D01*
X01054Y00778*
X01042Y00769*
X01034Y00758*
X01028Y00745*
X01026Y00731*
X01028Y00716*
X01034Y00703*
X01042Y00692*
X01054Y00683*
X01058Y00681*
Y00293*
X01027*
Y00184*
X01135*
Y00293*
X01104*
Y00681*
X01108Y00683*
X0112Y00692*
X01129Y00703*
X01134Y00716*
X01136Y00731*
X01134Y00745*
X01129Y00758*
X0112Y00769*
X01108Y00778*
X01095Y00784*
X01081Y00785*
G37*
G36*
X01278Y02195D02*
X01264Y02194D01*
X01251Y02188*
X01239Y02179*
X0123Y02168*
X01225Y02155*
X01223Y02141*
X01225Y02126*
X0123Y02113*
X01239Y02102*
X01251Y02093*
X01252Y02092*
Y01697*
X01251Y01696*
X01239Y01687*
X0123Y01676*
X01225Y01663*
X01223Y01648*
X01225Y01634*
X0123Y01621*
X01239Y0161*
X01251Y01601*
X01252Y016*
Y01474*
X01251Y01473*
X01239Y01464*
X0123Y01453*
X01225Y0144*
X01223Y01426*
X01225Y01411*
X0123Y01398*
X01239Y01387*
X01251Y01378*
X01252Y01377*
Y00982*
X01251Y00981*
X01239Y00972*
X0123Y00961*
X01225Y00948*
X01223Y00933*
X01225Y00919*
X0123Y00906*
X01239Y00895*
X01251Y00886*
X01252Y00885*
Y00779*
X01251Y00778*
X01239Y00769*
X0123Y00758*
X01225Y00745*
X01223Y00731*
X01225Y00716*
X0123Y00703*
X01239Y00692*
X01251Y00683*
X01252Y00682*
Y00287*
X01251Y00286*
X01239Y00277*
X0123Y00266*
X01225Y00253*
X01223Y00238*
X01225Y00224*
X0123Y00211*
X01239Y002*
X01251Y00191*
X01264Y00185*
X01278Y00184*
X01292Y00185*
X01305Y00191*
X01317Y002*
X01325Y00211*
X01331Y00224*
X01333Y00238*
X01331Y00253*
X01325Y00266*
X01317Y00277*
X01305Y00286*
X01303Y00287*
Y00682*
X01305Y00683*
X01317Y00692*
X01325Y00703*
X01331Y00716*
X01333Y00731*
X01331Y00745*
X01325Y00758*
X01317Y00769*
X01305Y00778*
X01303Y00779*
Y00885*
X01305Y00886*
X01317Y00895*
X01325Y00906*
X01331Y00919*
X01333Y00933*
X01331Y00948*
X01325Y00961*
X01317Y00972*
X01305Y00981*
X01303Y00982*
Y01377*
X01305Y01378*
X01317Y01387*
X01325Y01398*
X01331Y01411*
X01333Y01426*
X01331Y0144*
X01325Y01453*
X01317Y01464*
X01305Y01473*
X01303Y01474*
Y016*
X01305Y01601*
X01317Y0161*
X01325Y01621*
X01331Y01634*
X01333Y01648*
X01331Y01663*
X01325Y01676*
X01317Y01687*
X01305Y01696*
X01303Y01697*
Y02092*
X01305Y02093*
X01317Y02102*
X01325Y02113*
X01331Y02126*
X01333Y02141*
X01331Y02155*
X01325Y02168*
X01317Y02179*
X01305Y02188*
X01292Y02194*
X01278Y02195*
G37*
G36*
X00205Y00456D02*
X00114D01*
Y00365*
X00137*
Y00194*
X00137Y00194*
X00127Y00187*
X0012Y00177*
X00115Y00166*
X00114Y00155*
X00115Y00143*
X0012Y00132*
X00127Y00122*
X00137Y00115*
X00148Y0011*
X0016Y00109*
X00171Y0011*
X00182Y00115*
X00192Y00122*
X00199Y00132*
X00204Y00143*
X00205Y00155*
X00204Y00166*
X00199Y00177*
X00192Y00187*
X00182Y00194*
X00182Y00194*
Y00365*
X00205*
Y00456*
G37*
G36*
X02422Y00171D02*
X0241Y0017D01*
X02399Y00165*
X0239Y00158*
X02382Y00149*
X02378Y00138*
X02376Y00126*
X02378Y00114*
X02382Y00103*
X0239Y00094*
X02399Y00087*
X0241Y00082*
X02422Y0008*
X02433Y00082*
X02444Y00087*
X02454Y00094*
X02461Y00103*
X02466Y00114*
X02467Y00126*
X02466Y00138*
X02461Y00149*
X02454Y00158*
X02444Y00165*
X02433Y0017*
X02422Y00171*
G37*
G36*
X01145Y00137D02*
X01133Y00136D01*
X01123Y00132*
X01114Y00125*
X01107Y00116*
X01103Y00106*
X01102Y00095*
X01103Y00083*
X01107Y00073*
X01114Y00064*
X01123Y00057*
X01133Y00053*
X01145Y00052*
X01156Y00053*
X01166Y00057*
X01175Y00064*
X01182Y00073*
X01186Y00083*
X01187Y00095*
X01186Y00106*
X01182Y00116*
X01175Y00125*
X01166Y00132*
X01156Y00136*
X01145Y00137*
G37*
G36*
X0292Y00127D02*
X02908Y00126D01*
X02898Y00122*
X02889Y00115*
X02882Y00106*
X02878Y00096*
X02877Y00085*
X02878Y00073*
X02882Y00063*
X02889Y00054*
X02898Y00047*
X02908Y00043*
X0292Y00042*
X02931Y00043*
X02941Y00047*
X0295Y00054*
X02957Y00063*
X02961Y00073*
X02962Y00085*
X02961Y00096*
X02957Y00106*
X0295Y00115*
X02941Y00122*
X02931Y00126*
X0292Y00127*
G37*
G36*
X03055Y00139D02*
X03043Y00138D01*
X03032Y00135*
X03021Y00129*
X03012Y00122*
X03005Y00113*
X02999Y00102*
X02996Y00091*
X02995Y0008*
X02996Y00068*
X02999Y00057*
X03005Y00046*
X03012Y00037*
X03021Y0003*
X03032Y00024*
X03043Y00021*
X03055Y0002*
X03066Y00021*
X03077Y00024*
X03088Y0003*
X03097Y00037*
X03104Y00046*
X0311Y00057*
X03113Y00068*
X03114Y0008*
X03113Y00091*
X0311Y00102*
X03104Y00113*
X03097Y00122*
X03088Y00129*
X03077Y00135*
X03066Y00138*
X03055Y00139*
G37*
G36*
X00065D02*
X00053Y00138D01*
X00042Y00135*
X00031Y00129*
X00022Y00122*
X00015Y00113*
X00009Y00102*
X00006Y00091*
X00005Y0008*
X00006Y00068*
X00009Y00057*
X00015Y00046*
X00022Y00037*
X00031Y0003*
X00042Y00024*
X00053Y00021*
X00065Y0002*
X00076Y00021*
X00087Y00024*
X00098Y0003*
X00107Y00037*
X00114Y00046*
X0012Y00057*
X00123Y00068*
X00124Y0008*
X00123Y00091*
X0012Y00102*
X00114Y00113*
X00107Y00122*
X00098Y00129*
X00087Y00135*
X00076Y00138*
X00065Y00139*
G37*
G36*
X02664Y01874D02*
X02575D01*
Y01785*
X02664*
Y01874*
G37*
G36*
X0198Y00532D02*
X01968Y00531D01*
X01958Y00527*
X01949Y0052*
X01942Y00511*
X01938Y00501*
X01937Y0049*
X01938Y00478*
X01942Y00468*
X01949Y00459*
X01958Y00452*
X01968Y00448*
X0198Y00447*
X01991Y00448*
X02001Y00452*
X0201Y00459*
X02017Y00468*
X02021Y00478*
X02022Y0049*
X02021Y00501*
X02017Y00511*
X0201Y0052*
X02001Y00527*
X01991Y00531*
X0198Y00532*
G37*
%LNpcb_en1093_copper_signal_top-3*%
%LPD*%
G36*
X00572Y01771D02*
Y01474D01*
X00571Y01473*
X0056Y01465*
X00555Y01466*
Y0175*
X00557Y01752*
X00563Y0176*
X00567Y01769*
X00567Y01772*
X00572Y01771*
G37*
G36*
X00447Y01388D02*
Y00988D01*
X00424*
Y01376*
X00428Y01378*
X0044Y01387*
X00442Y01389*
X00447Y01388*
G37*
G36*
X00571Y01378D02*
X00572Y01377D01*
Y00982*
X00571Y00981*
X0056Y00973*
X00555Y00974*
Y01385*
X0056Y01386*
X00571Y01378*
G37*
G54D10*
X02445Y02157D02*
X02593Y02305D01*
X02315Y01145D02*
X02445Y01275D01*
Y02157*
X02364Y01296D02*
Y01946D01*
X02229Y00775D02*
Y01161D01*
X02364Y01296*
X03055Y00736D02*
X03059D01*
X02905Y02305D02*
X03059Y02151D01*
X02593Y02305D02*
X02905D01*
X0047Y00795D02*
Y01605D01*
X00225Y0185D02*
X0047Y01605D01*
Y00795D02*
X0059Y00675D01*
X03059Y00736D02*
Y02151D01*
X01694Y00846D02*
Y01895D01*
X02915Y0063D02*
X02987Y00702D01*
Y00784*
X03029Y00826*
Y01871*
X0298Y0192D02*
X03029Y01871D01*
X02615Y0153D02*
X02825Y0174D01*
Y02115*
X02562Y01482D02*
X02615Y0143D01*
X02562Y01482D02*
Y01561D01*
X02773Y01772*
Y01936*
X02725Y01984D02*
X02773Y01936D01*
X02725Y01984D02*
Y02115D01*
X02315Y01995D02*
X02364Y01946D01*
X02915Y0113D02*
X02968Y01183D01*
Y01642*
X02899Y01711D02*
X02968Y01642D01*
X02787Y01402D02*
X02915Y0153D01*
X02787Y00203D02*
Y01402D01*
X02668Y00085D02*
X02787Y00203D01*
X0262Y00085D02*
X02668D01*
X01445Y00095D02*
Y0031D01*
X0173Y00595*
X01694Y01895D02*
X0171D01*
X01694Y00846D02*
X0175Y0079D01*
X0198*
X02Y0215D02*
X02065Y02084D01*
Y0025D02*
Y02084D01*
X0198Y00165D02*
X02065Y0025D01*
X00401Y00933D02*
Y01426D01*
X0016Y00155D02*
Y0041D01*
X01081Y00238D02*
Y00731D01*
X01081Y00933D02*
Y01426D01*
Y01648D02*
Y02141D01*
X01756Y00933D02*
Y01426D01*
G54D11*
X02615Y0073D02*
X027Y00645D01*
Y00237D02*
Y00645D01*
X02599Y00137D02*
X02637Y00175D01*
X02669Y00207D02*
X027Y00237D01*
X02637Y00175D02*
X02669Y00207D01*
X02637Y00175D02*
X02637D01*
X02669Y00207D02*
Y00207D01*
X02567Y00062D02*
Y00104D01*
X02567Y00105*
Y00106D02*
X02598Y00137D01*
X02567Y00105D02*
Y00106D01*
X02598Y00137D02*
X02599D01*
X0173Y00415D02*
Y00495D01*
X0188Y00165D02*
Y00265D01*
X0173Y00415D02*
X0188Y00265D01*
X0173Y00495D02*
X0179D01*
X02032Y00737D02*
D01*
X0179Y00495D02*
X02032Y00737D01*
X0079Y00675D02*
Y0078D01*
X0058Y0084D02*
X0073D01*
X0079Y0078*
Y00445D02*
Y00675D01*
X0053Y0089D02*
X0058Y0084D01*
X0053Y0089D02*
Y0178D01*
X0253Y00814D02*
X02615Y0073D01*
X0253Y00814D02*
Y0202D01*
X02625Y02115*
X0283Y00845D02*
X02915Y0093D01*
X0283Y00147D02*
Y00845D01*
X02711Y00029D02*
X0283Y00147D01*
X026Y00029D02*
X02711D01*
X02567Y00062D02*
X026Y00029D01*
X0079Y00445D02*
X0081Y00175D01*
X0039Y00463D02*
Y00675D01*
X00337Y0041D02*
X0039Y00463D01*
X02264Y01396D02*
X02315Y01345D01*
X02264Y01396D02*
Y01714D01*
X02315Y01765*
X0178Y00165D02*
X01871Y00074D01*
X02174*
X02345Y00244*
X00598Y01426D02*
Y02011D01*
X0053Y0208D02*
X00598Y02011D01*
X02345Y00244D02*
X0248Y00379D01*
Y00595*
X02615Y0073*
X01953Y00933D02*
X02032Y00854D01*
Y00737D02*
Y00854D01*
X02264Y01816D02*
X02315Y01765D01*
X02264Y01816D02*
Y02144D01*
X02315Y02195*
X00598Y00933D02*
Y01426D01*
X00337Y00155D02*
Y0041D01*
X01953Y00933D02*
Y01426D01*
X01278Y00238D02*
Y00731D01*
Y00933*
Y01426*
Y01648D02*
Y02141D01*
Y01426D02*
Y01648D01*
G54D12*
X03149Y0D02*
X0315Y0D01*
G54D13*
X02525Y02115D03*
X02625D03*
X02725D03*
X0039Y00675D03*
X0069D03*
X0059D03*
X0049D03*
X0051Y00175D03*
X0061D03*
X0071D03*
G54D14*
X02825Y02115D03*
X0079Y00675D03*
X0081Y00175D03*
G54D15*
X01081Y00238D03*
X00401Y00933D03*
X01081D03*
Y01648D03*
X01756Y00933D03*
G54D16*
X01081Y00731D03*
X01278Y00238D03*
Y00731D03*
X00598Y01426D03*
Y00933D03*
X00401Y01426D03*
X01278D03*
Y00933D03*
X01081Y01426D03*
X01278Y02141D03*
Y01648D03*
X01081Y02141D03*
X01953Y01426D03*
Y00933D03*
X01756Y01426D03*
G54D17*
X0201Y01895D03*
X0171D03*
X0053Y0178D03*
Y0208D03*
X02Y0215D03*
X017D03*
X00225Y0185D03*
Y0195D03*
G54D18*
X0173Y00495D03*
G54D19*
X0173Y00595D03*
G54D20*
X02345Y00598D03*
Y00362D03*
Y0048D03*
Y00716D03*
Y00835D03*
G54D21*
X02422Y00126D03*
Y00953D03*
G54D22*
X02345Y00244D03*
G54D23*
X0298Y0172D03*
X02315Y01995D03*
Y01565D03*
Y01345D03*
G54D24*
X0298Y0192D03*
X02315Y02195D03*
Y01765D03*
Y01145D03*
G54D25*
X00065Y02282D03*
Y0008D03*
X00835Y0118D03*
X01545D03*
Y0202D03*
X03052Y0228D03*
X03055Y0008D03*
G54D26*
X02915Y0153D03*
X0262Y0183D03*
G54D27*
X02915Y0143D03*
Y0133D03*
Y0123D03*
Y0113D03*
Y0103D03*
Y0093D03*
Y0083D03*
Y0073D03*
Y0063D03*
Y0053D03*
Y0043D03*
Y0033D03*
Y0023D03*
X02615Y0153D03*
Y0143D03*
Y0133D03*
Y0123D03*
Y0113D03*
Y0103D03*
Y0093D03*
Y0083D03*
Y0073D03*
Y0063D03*
Y0053D03*
Y0043D03*
Y0033D03*
Y0023D03*
X0272Y0183D03*
G54D28*
X0305Y00603D03*
Y00726D03*
G54D29*
X0262Y00085D03*
X0292D03*
X01445Y00095D03*
X0198Y0079D03*
Y0049D03*
X01145Y00095D03*
G54D30*
X00225Y0205D03*
G54D31*
X00337Y00155D03*
X0016D03*
X00337Y0041D03*
G54D32*
X0016Y0041D03*
G54D33*
X0198Y00165D03*
G54D34*
X0188Y00165D03*
X0178D03*
G54D35*
X02229Y00775D03*
X02899Y01711D03*
M02*