%FSTAX23Y23*%
%MOIN*%
%SFA1B1*%

%IPPOS*%
%ADD12C,0.010000*%
%ADD36C,0.009842*%
%ADD37C,0.007874*%
%LNpcb_en1093_legend_top-1*%
%LPD*%
G54D12*
X00166Y00553D02*
X00156Y00563D01*
X00136*
X00127Y00553*
Y00543*
X00136Y00533*
X00156*
X00166Y00523*
Y00513*
X00156Y00504*
X00136*
X00127Y00513*
X00186Y00563D02*
Y00504D01*
X00206Y00523*
X00226Y00504*
Y00563*
X00246D02*
X00286D01*
Y00553*
X00246Y00513*
Y00504*
X003Y01554D02*
X0029Y01564D01*
X0027*
X0026Y01554*
Y01544*
X0027Y01535*
X0029*
X003Y01525*
Y01515*
X0029Y01505*
X0027*
X0026Y01515*
X0032Y01564D02*
Y01505D01*
X0034Y01525*
X00359Y01505*
Y01564*
X00419Y01505D02*
X00379D01*
X00419Y01544*
Y01554*
X00409Y01564*
X00389*
X00379Y01554*
X0094Y00849D02*
X0093Y00859D01*
X0091*
X009Y00849*
Y00839*
X0091Y0083*
X0093*
X0094Y0082*
Y0081*
X0093Y008*
X0091*
X009Y0081*
X0096Y00859D02*
Y008D01*
X0098Y0082*
X00999Y008*
Y00859*
X01019Y00849D02*
X01029Y00859D01*
X01049*
X01059Y00849*
Y00839*
X01049Y0083*
X01039*
X01049*
X01059Y0082*
Y0081*
X01049Y008*
X01029*
X01019Y0081*
X00965Y01549D02*
X00955Y01559D01*
X00935*
X00925Y01549*
Y01539*
X00935Y0153*
X00955*
X00965Y0152*
Y0151*
X00955Y015*
X00935*
X00925Y0151*
X00985Y01559D02*
Y015D01*
X01005Y0152*
X01024Y015*
Y01559*
X01084D02*
X01044D01*
Y0153*
X01064Y01539*
X01074*
X01084Y0153*
Y0151*
X01074Y015*
X01054*
X01044Y0151*
X00985Y02274D02*
X00975Y02284D01*
X00955*
X00945Y02274*
Y02264*
X00955Y02255*
X00975*
X00985Y02245*
Y02235*
X00975Y02225*
X00955*
X00945Y02235*
X01005Y02284D02*
Y02225D01*
X01024Y02245*
X01044Y02225*
Y02284*
X01064Y02225D02*
X01084D01*
X01074*
Y02284*
X01064Y02274*
X01654Y01552D02*
X01644Y01562D01*
X01624*
X01615Y01552*
Y01542*
X01624Y01532*
X01644*
X01654Y01522*
Y01512*
X01644Y01503*
X01624*
X01615Y01512*
X01674Y01562D02*
Y01503D01*
X01694Y01522*
X01714Y01503*
Y01562*
X01764Y01503D02*
Y01562D01*
X01734Y01532*
X01774*
X0261Y02285D02*
Y02344D01*
X0264*
X0265Y02334*
Y02315*
X0264Y02305*
X0261*
X02709Y02285D02*
X02669D01*
X02709Y02324*
Y02334*
X02699Y02344*
X02679*
X02669Y02334*
G54D36*
X02905Y02115D02*
D01*
X02905Y02115*
X02905Y02115*
X02905Y02116*
X02905Y02116*
X02905Y02116*
X02905Y02117*
X02905Y02117*
X02904Y02117*
X02904Y02117*
X02904Y02118*
X02904Y02118*
X02904Y02118*
X02903Y02118*
X02903Y02119*
X02903Y02119*
X02902Y02119*
X02902Y02119*
X02902Y02119*
X02901Y02119*
X02901Y02119*
X02901Y02119*
X029Y02119*
X029*
X029Y02119*
X02899Y02119*
X02899Y02119*
X02899Y02119*
X02898Y02119*
X02898Y02119*
X02898Y02119*
X02897Y02119*
X02897Y02118*
X02897Y02118*
X02897Y02118*
X02896Y02118*
X02896Y02117*
X02896Y02117*
X02896Y02117*
X02896Y02117*
X02895Y02116*
X02895Y02116*
X02895Y02116*
X02895Y02115*
X02895Y02115*
X02895Y02115*
X02895Y02114*
X02895Y02114*
X02895Y02113*
X02895Y02113*
X02895Y02113*
X02896Y02112*
X02896Y02112*
X02896Y02112*
X02896Y02112*
X02896Y02111*
X02897Y02111*
X02897Y02111*
X02897Y02111*
X02897Y0211*
X02898Y0211*
X02898Y0211*
X02898Y0211*
X02899Y0211*
X02899Y0211*
X02899Y0211*
X029Y0211*
X029Y0211*
X029*
X02901Y0211*
X02901Y0211*
X02901Y0211*
X02902Y0211*
X02902Y0211*
X02902Y0211*
X02903Y0211*
X02903Y0211*
X02903Y02111*
X02904Y02111*
X02904Y02111*
X02904Y02111*
X02904Y02112*
X02904Y02112*
X02905Y02112*
X02905Y02112*
X02905Y02113*
X02905Y02113*
X02905Y02113*
X02905Y02114*
X02905Y02114*
X02905Y02115*
X01086Y00176D02*
D01*
X01086Y00177*
X01086Y00177*
X01086Y00177*
X01086Y00178*
X01086Y00178*
X01086Y00178*
X01085Y00179*
X01085Y00179*
X01085Y00179*
X01085Y0018*
X01085Y0018*
X01084Y0018*
X01084Y0018*
X01084Y00181*
X01084Y00181*
X01083Y00181*
X01083Y00181*
X01083Y00181*
X01082Y00181*
X01082Y00181*
X01082Y00181*
X01081Y00181*
X01081*
X01081Y00181*
X0108Y00181*
X0108Y00181*
X0108Y00181*
X01079Y00181*
X01079Y00181*
X01079Y00181*
X01078Y00181*
X01078Y0018*
X01078Y0018*
X01078Y0018*
X01077Y0018*
X01077Y00179*
X01077Y00179*
X01077Y00179*
X01077Y00178*
X01076Y00178*
X01076Y00178*
X01076Y00177*
X01076Y00177*
X01076Y00177*
X01076Y00176*
X01076Y00176*
X01076Y00176*
X01076Y00175*
X01076Y00175*
X01076Y00175*
X01077Y00174*
X01077Y00174*
X01077Y00174*
X01077Y00174*
X01077Y00173*
X01078Y00173*
X01078Y00173*
X01078Y00173*
X01078Y00172*
X01079Y00172*
X01079Y00172*
X01079Y00172*
X0108Y00172*
X0108Y00172*
X0108Y00172*
X01081Y00172*
X01081Y00172*
X01081*
X01082Y00172*
X01082Y00172*
X01082Y00172*
X01083Y00172*
X01083Y00172*
X01083Y00172*
X01084Y00172*
X01084Y00172*
X01084Y00173*
X01084Y00173*
X01085Y00173*
X01085Y00173*
X01085Y00174*
X01085Y00174*
X01085Y00174*
X01086Y00174*
X01086Y00175*
X01086Y00175*
X01086Y00175*
X01086Y00176*
X01086Y00176*
X01086Y00176*
X00406Y00871D02*
D01*
X00406Y00872*
X00406Y00872*
X00406Y00872*
X00406Y00873*
X00406Y00873*
X00406Y00873*
X00405Y00874*
X00405Y00874*
X00405Y00874*
X00405Y00875*
X00405Y00875*
X00404Y00875*
X00404Y00875*
X00404Y00876*
X00404Y00876*
X00403Y00876*
X00403Y00876*
X00403Y00876*
X00402Y00876*
X00402Y00876*
X00402Y00876*
X00401Y00876*
X00401*
X00401Y00876*
X004Y00876*
X004Y00876*
X004Y00876*
X00399Y00876*
X00399Y00876*
X00399Y00876*
X00398Y00876*
X00398Y00875*
X00398Y00875*
X00398Y00875*
X00397Y00875*
X00397Y00874*
X00397Y00874*
X00397Y00874*
X00397Y00873*
X00396Y00873*
X00396Y00873*
X00396Y00872*
X00396Y00872*
X00396Y00872*
X00396Y00871*
X00396Y00871*
X00396Y00871*
X00396Y0087*
X00396Y0087*
X00396Y0087*
X00397Y00869*
X00397Y00869*
X00397Y00869*
X00397Y00869*
X00397Y00868*
X00398Y00868*
X00398Y00868*
X00398Y00868*
X00398Y00867*
X00399Y00867*
X00399Y00867*
X00399Y00867*
X004Y00867*
X004Y00867*
X004Y00867*
X00401Y00867*
X00401Y00867*
X00401*
X00402Y00867*
X00402Y00867*
X00402Y00867*
X00403Y00867*
X00403Y00867*
X00403Y00867*
X00404Y00867*
X00404Y00867*
X00404Y00868*
X00404Y00868*
X00405Y00868*
X00405Y00868*
X00405Y00869*
X00405Y00869*
X00405Y00869*
X00406Y00869*
X00406Y0087*
X00406Y0087*
X00406Y0087*
X00406Y00871*
X00406Y00871*
X00406Y00871*
X01086D02*
D01*
X01086Y00872*
X01086Y00872*
X01086Y00872*
X01086Y00873*
X01086Y00873*
X01086Y00873*
X01085Y00874*
X01085Y00874*
X01085Y00874*
X01085Y00875*
X01085Y00875*
X01084Y00875*
X01084Y00875*
X01084Y00876*
X01084Y00876*
X01083Y00876*
X01083Y00876*
X01083Y00876*
X01082Y00876*
X01082Y00876*
X01082Y00876*
X01081Y00876*
X01081*
X01081Y00876*
X0108Y00876*
X0108Y00876*
X0108Y00876*
X01079Y00876*
X01079Y00876*
X01079Y00876*
X01078Y00876*
X01078Y00875*
X01078Y00875*
X01078Y00875*
X01077Y00875*
X01077Y00874*
X01077Y00874*
X01077Y00874*
X01077Y00873*
X01076Y00873*
X01076Y00873*
X01076Y00872*
X01076Y00872*
X01076Y00872*
X01076Y00871*
X01076Y00871*
X01076Y00871*
X01076Y0087*
X01076Y0087*
X01076Y0087*
X01077Y00869*
X01077Y00869*
X01077Y00869*
X01077Y00869*
X01077Y00868*
X01078Y00868*
X01078Y00868*
X01078Y00868*
X01078Y00867*
X01079Y00867*
X01079Y00867*
X01079Y00867*
X0108Y00867*
X0108Y00867*
X0108Y00867*
X01081Y00867*
X01081Y00867*
X01081*
X01082Y00867*
X01082Y00867*
X01082Y00867*
X01083Y00867*
X01083Y00867*
X01083Y00867*
X01084Y00867*
X01084Y00867*
X01084Y00868*
X01084Y00868*
X01085Y00868*
X01085Y00868*
X01085Y00869*
X01085Y00869*
X01085Y00869*
X01086Y00869*
X01086Y0087*
X01086Y0087*
X01086Y0087*
X01086Y00871*
X01086Y00871*
X01086Y00871*
Y01586D02*
D01*
X01086Y01587*
X01086Y01587*
X01086Y01587*
X01086Y01588*
X01086Y01588*
X01086Y01588*
X01085Y01589*
X01085Y01589*
X01085Y01589*
X01085Y0159*
X01085Y0159*
X01084Y0159*
X01084Y0159*
X01084Y01591*
X01084Y01591*
X01083Y01591*
X01083Y01591*
X01083Y01591*
X01082Y01591*
X01082Y01591*
X01082Y01591*
X01081Y01591*
X01081*
X01081Y01591*
X0108Y01591*
X0108Y01591*
X0108Y01591*
X01079Y01591*
X01079Y01591*
X01079Y01591*
X01078Y01591*
X01078Y0159*
X01078Y0159*
X01078Y0159*
X01077Y0159*
X01077Y01589*
X01077Y01589*
X01077Y01589*
X01077Y01588*
X01076Y01588*
X01076Y01588*
X01076Y01587*
X01076Y01587*
X01076Y01587*
X01076Y01586*
X01076Y01586*
X01076Y01586*
X01076Y01585*
X01076Y01585*
X01076Y01585*
X01077Y01584*
X01077Y01584*
X01077Y01584*
X01077Y01584*
X01077Y01583*
X01078Y01583*
X01078Y01583*
X01078Y01583*
X01078Y01582*
X01079Y01582*
X01079Y01582*
X01079Y01582*
X0108Y01582*
X0108Y01582*
X0108Y01582*
X01081Y01582*
X01081Y01582*
X01081*
X01082Y01582*
X01082Y01582*
X01082Y01582*
X01083Y01582*
X01083Y01582*
X01083Y01582*
X01084Y01582*
X01084Y01582*
X01084Y01583*
X01084Y01583*
X01085Y01583*
X01085Y01583*
X01085Y01584*
X01085Y01584*
X01085Y01584*
X01086Y01584*
X01086Y01585*
X01086Y01585*
X01086Y01585*
X01086Y01586*
X01086Y01586*
X01086Y01586*
X01761Y00871D02*
D01*
X01761Y00872*
X01761Y00872*
X01761Y00872*
X01761Y00873*
X01761Y00873*
X01761Y00873*
X0176Y00874*
X0176Y00874*
X0176Y00874*
X0176Y00875*
X0176Y00875*
X01759Y00875*
X01759Y00875*
X01759Y00876*
X01759Y00876*
X01758Y00876*
X01758Y00876*
X01758Y00876*
X01757Y00876*
X01757Y00876*
X01757Y00876*
X01756Y00876*
X01756*
X01756Y00876*
X01755Y00876*
X01755Y00876*
X01755Y00876*
X01754Y00876*
X01754Y00876*
X01754Y00876*
X01753Y00876*
X01753Y00875*
X01753Y00875*
X01753Y00875*
X01752Y00875*
X01752Y00874*
X01752Y00874*
X01752Y00874*
X01752Y00873*
X01751Y00873*
X01751Y00873*
X01751Y00872*
X01751Y00872*
X01751Y00872*
X01751Y00871*
X01751Y00871*
X01751Y00871*
X01751Y0087*
X01751Y0087*
X01751Y0087*
X01752Y00869*
X01752Y00869*
X01752Y00869*
X01752Y00869*
X01752Y00868*
X01753Y00868*
X01753Y00868*
X01753Y00868*
X01753Y00867*
X01754Y00867*
X01754Y00867*
X01754Y00867*
X01755Y00867*
X01755Y00867*
X01755Y00867*
X01756Y00867*
X01756Y00867*
X01756*
X01757Y00867*
X01757Y00867*
X01757Y00867*
X01758Y00867*
X01758Y00867*
X01758Y00867*
X01759Y00867*
X01759Y00867*
X01759Y00868*
X01759Y00868*
X0176Y00868*
X0176Y00868*
X0176Y00869*
X0176Y00869*
X0176Y00869*
X01761Y00869*
X01761Y0087*
X01761Y0087*
X01761Y0087*
X01761Y00871*
X01761Y00871*
X01761Y00871*
X00164Y00464D02*
D01*
X00164Y00464*
X00164Y00464*
X00164Y00465*
X00164Y00465*
X00164Y00465*
X00164Y00466*
X00164Y00466*
X00164Y00466*
X00163Y00466*
X00163Y00467*
X00163Y00467*
X00163Y00467*
X00163Y00467*
X00162Y00468*
X00162Y00468*
X00162Y00468*
X00161Y00468*
X00161Y00468*
X00161Y00468*
X0016Y00468*
X0016Y00468*
X0016Y00468*
X00159*
X00159Y00468*
X00159Y00468*
X00158Y00468*
X00158Y00468*
X00158Y00468*
X00157Y00468*
X00157Y00468*
X00157Y00468*
X00156Y00467*
X00156Y00467*
X00156Y00467*
X00156Y00467*
X00156Y00466*
X00155Y00466*
X00155Y00466*
X00155Y00466*
X00155Y00465*
X00155Y00465*
X00155Y00465*
X00155Y00464*
X00155Y00464*
X00155Y00464*
X00155Y00463*
X00155Y00463*
X00155Y00463*
X00155Y00462*
X00155Y00462*
X00155Y00462*
X00155Y00461*
X00155Y00461*
X00156Y00461*
X00156Y0046*
X00156Y0046*
X00156Y0046*
X00156Y0046*
X00157Y00459*
X00157Y00459*
X00157Y00459*
X00158Y00459*
X00158Y00459*
X00158Y00459*
X00159Y00459*
X00159Y00459*
X00159Y00459*
X0016*
X0016Y00459*
X0016Y00459*
X00161Y00459*
X00161Y00459*
X00161Y00459*
X00162Y00459*
X00162Y00459*
X00162Y00459*
X00163Y0046*
X00163Y0046*
X00163Y0046*
X00163Y0046*
X00163Y00461*
X00164Y00461*
X00164Y00461*
X00164Y00462*
X00164Y00462*
X00164Y00462*
X00164Y00463*
X00164Y00463*
X00164Y00463*
X00164Y00464*
G54D37*
X02475Y0224D02*
X02875D01*
Y02015D02*
Y0224D01*
X02475Y02015D02*
X02875D01*
X02475D02*
Y0224D01*
X00937Y00242D02*
Y00727D01*
X01332D02*
X01422D01*
X01135D02*
X01224D01*
X00937D02*
X01027D01*
X01422Y00242D02*
Y00727D01*
X01332Y00242D02*
X01422D01*
X01135D02*
X01224D01*
X00937D02*
X01027D01*
X00257Y00937D02*
X00347D01*
X00455D02*
X00544D01*
X00652D02*
X00742D01*
Y01422*
X00257D02*
X00347D01*
X00455D02*
X00544D01*
X00652D02*
X00742D01*
X00257Y00937D02*
Y01422D01*
X00937Y00937D02*
X01027D01*
X01135D02*
X01224D01*
X01332D02*
X01422D01*
Y01422*
X00937D02*
X01027D01*
X01135D02*
X01224D01*
X01332D02*
X01422D01*
X00937Y00937D02*
Y01422D01*
Y01652D02*
X01027D01*
X01135D02*
X01224D01*
X01332D02*
X01422D01*
Y02137*
X00937D02*
X01027D01*
X01135D02*
X01224D01*
X01332D02*
X01422D01*
X00937Y01652D02*
Y02137D01*
X01612Y00937D02*
X01702D01*
X0181D02*
X01899D01*
X02007D02*
X02097D01*
Y01422*
X01612D02*
X01702D01*
X0181D02*
X01899D01*
X02007D02*
X02097D01*
X01612Y00937D02*
Y01422D01*
X00124Y002D02*
Y00365D01*
X00205Y00158D02*
X00291D01*
X00372Y002D02*
Y00365D01*
X00205Y00406D02*
X00291D01*
M02*