%TF.GenerationSoftware,Altium Limited,Altium Designer,20.2.7 (254)*%
G04 Layer_Color=32896*
%FSLAX26Y26*%
%MOIN*%
%TF.SameCoordinates,9B8E3E2B-FE8D-437B-BC4F-748A5F5A7EBC*%
%TF.FilePolarity,Positive*%
%TF.FileFunction,Legend,Bot*%
%TF.Part,Single*%
G01*
G75*
%TA.AperFunction,NonConductor*%
%ADD12C,0.010000*%
%ADD36C,0.009842*%
%ADD37C,0.007874*%
%ADD38C,0.023622*%
D12*
X2463000Y1012000D02*
Y1071981D01*
X2433010D01*
X2423013Y1061984D01*
Y1041990D01*
X2433010Y1031994D01*
X2463000D01*
X2403019Y1061984D02*
X2393023Y1071981D01*
X2373029D01*
X2363032Y1061984D01*
Y1051987D01*
X2373029Y1041990D01*
X2383026D01*
X2373029D01*
X2363032Y1031994D01*
Y1021997D01*
X2373029Y1012000D01*
X2393023D01*
X2403019Y1021997D01*
X364360Y239003D02*
X304380D01*
Y209013D01*
X314377Y199016D01*
X334370D01*
X344367Y209013D01*
Y239003D01*
X364360Y179022D02*
Y159029D01*
Y169026D01*
X304380D01*
X314377Y179022D01*
X3105000Y845981D02*
Y835984D01*
X3085006Y815990D01*
X3065013Y835984D01*
Y845981D01*
X3085006Y815990D02*
Y786000D01*
X3045019D02*
X3025026D01*
X3035023D01*
Y845981D01*
X3045019Y835984D01*
X2809984Y1659990D02*
Y1610006D01*
X2799987Y1600010D01*
X2779994D01*
X2769997Y1610006D01*
Y1659990D01*
X2710016Y1600010D02*
X2750003D01*
X2710016Y1639997D01*
Y1649994D01*
X2720013Y1659990D01*
X2740006D01*
X2750003Y1649994D01*
X2079000Y370981D02*
Y320997D01*
X2069003Y311000D01*
X2049010D01*
X2039013Y320997D01*
Y370981D01*
X2019019Y311000D02*
X1999026D01*
X2009023D01*
Y370981D01*
X2019019Y360984D01*
X2549984Y35010D02*
Y94990D01*
X2519994D01*
X2509997Y84993D01*
Y65000D01*
X2519994Y55003D01*
X2549984D01*
X2529990D02*
X2509997Y35010D01*
X2460013D02*
Y94990D01*
X2490003Y65000D01*
X2450016D01*
X219000Y1666000D02*
Y1606019D01*
X248990D01*
X258987Y1616016D01*
Y1636010D01*
X248990Y1646006D01*
X219000D01*
X238994D02*
X258987Y1666000D01*
X278981Y1616016D02*
X288977Y1606019D01*
X308971D01*
X318968Y1616016D01*
Y1626013D01*
X308971Y1636010D01*
X298974D01*
X308971D01*
X318968Y1646006D01*
Y1656003D01*
X308971Y1666000D01*
X288977D01*
X278981Y1656003D01*
X2045010Y605016D02*
X2104990D01*
Y635006D01*
X2094994Y645003D01*
X2075000D01*
X2065003Y635006D01*
Y605016D01*
Y625010D02*
X2045010Y645003D01*
Y704984D02*
Y664997D01*
X2084997Y704984D01*
X2094994D01*
X2104990Y694987D01*
Y674994D01*
X2094994Y664997D01*
X1507000Y39000D02*
X1566981D01*
Y68990D01*
X1556984Y78987D01*
X1536990D01*
X1526994Y68990D01*
Y39000D01*
Y58993D02*
X1507000Y78987D01*
Y98981D02*
Y118974D01*
Y108977D01*
X1566981D01*
X1556984Y98981D01*
X784984Y810010D02*
Y869990D01*
X754994D01*
X744997Y859994D01*
Y840000D01*
X754994Y830003D01*
X784984D01*
X685016Y869990D02*
X725003D01*
Y840000D01*
X705010Y849997D01*
X695013D01*
X685016Y840000D01*
Y820006D01*
X695013Y810010D01*
X715006D01*
X725003Y820006D01*
X2450010Y1778204D02*
X2509990D01*
Y1808195D01*
X2499994Y1818191D01*
X2480000D01*
X2470003Y1808195D01*
Y1778204D01*
X2450010Y1868175D02*
X2509990D01*
X2480000Y1838185D01*
Y1878172D01*
X1729000Y725981D02*
Y666000D01*
X1699010D01*
X1689013Y675997D01*
Y715984D01*
X1699010Y725981D01*
X1729000D01*
X1669019Y666000D02*
X1649026D01*
X1659023D01*
Y725981D01*
X1669019Y715984D01*
X2989997Y2069994D02*
X2999994Y2079990D01*
X3019987D01*
X3029984Y2069994D01*
Y2030006D01*
X3019987Y2020010D01*
X2999994D01*
X2989997Y2030006D01*
X2970003Y2079990D02*
X2930016D01*
Y2069994D01*
X2970003Y2030006D01*
Y2020010D01*
X2324997Y1459994D02*
X2334994Y1469990D01*
X2354987D01*
X2364984Y1459994D01*
Y1420006D01*
X2354987Y1410010D01*
X2334994D01*
X2324997Y1420006D01*
X2265016Y1469990D02*
X2285010Y1459994D01*
X2305003Y1440000D01*
Y1420006D01*
X2295006Y1410010D01*
X2275013D01*
X2265016Y1420006D01*
Y1430003D01*
X2275013Y1440000D01*
X2305003D01*
X2334997Y1914994D02*
X2344994Y1924990D01*
X2364987D01*
X2374984Y1914994D01*
Y1875006D01*
X2364987Y1865010D01*
X2344994D01*
X2334997Y1875006D01*
X2275016Y1924990D02*
X2315003D01*
Y1895000D01*
X2295010Y1904997D01*
X2285013D01*
X2275016Y1895000D01*
Y1875006D01*
X2285013Y1865010D01*
X2305006D01*
X2315003Y1875006D01*
X2329997Y2319994D02*
X2339994Y2329990D01*
X2359987D01*
X2369984Y2319994D01*
Y2280006D01*
X2359987Y2270010D01*
X2339994D01*
X2329997Y2280006D01*
X2280013Y2270010D02*
Y2329990D01*
X2310003Y2300000D01*
X2270016D01*
X1894997Y1769994D02*
X1904994Y1779990D01*
X1924987D01*
X1934984Y1769994D01*
Y1730006D01*
X1924987Y1720010D01*
X1904994D01*
X1894997Y1730006D01*
X1875003Y1769994D02*
X1865006Y1779990D01*
X1845013D01*
X1835016Y1769994D01*
Y1759997D01*
X1845013Y1750000D01*
X1855010D01*
X1845013D01*
X1835016Y1740003D01*
Y1730006D01*
X1845013Y1720010D01*
X1865006D01*
X1875003Y1730006D01*
X521013Y2238984D02*
X531010Y2248981D01*
X551003D01*
X561000Y2238984D01*
Y2198997D01*
X551003Y2189000D01*
X531010D01*
X521013Y2198997D01*
X461032Y2189000D02*
X501019D01*
X461032Y2228987D01*
Y2238984D01*
X471029Y2248981D01*
X491023D01*
X501019Y2238984D01*
X2029013Y2308984D02*
X2039010Y2318981D01*
X2059003D01*
X2069000Y2308984D01*
Y2268997D01*
X2059003Y2259000D01*
X2039010D01*
X2029013Y2268997D01*
X2009019Y2259000D02*
X1989026D01*
X1999023D01*
Y2318981D01*
X2009019Y2308984D01*
D36*
X870669Y675000D02*
G03*
X870669Y675000I-5000J0D01*
G01*
X1734921Y444606D02*
G03*
X1734921Y444606I-4921J0D01*
G01*
X2468227Y244451D02*
G03*
X2468227Y244451I-4921J0D01*
G01*
X2986476Y1983110D02*
G03*
X2986476Y1983110I-4921J0D01*
G01*
X2321476Y2258110D02*
G03*
X2321476Y2258110I-4921J0D01*
G01*
X2919921Y1581181D02*
G03*
X2919921Y1581181I-4921J0D01*
G01*
X2321476Y1828110D02*
G03*
X2321476Y1828110I-4921J0D01*
G01*
X2318366Y1081890D02*
G03*
X2318366Y1081890I-4921J0D01*
G01*
X2624921Y1684330D02*
G03*
X2624921Y1684330I-4921J0D01*
G01*
X890669Y175000D02*
G03*
X890669Y175000I-5000J0D01*
G01*
X2064055Y121693D02*
G03*
X2064055Y121693I-4921J0D01*
G01*
D37*
X1774094Y493819D02*
G03*
X1774094Y596181I-44039J51181D01*
G01*
X1685906D02*
G03*
X1685905Y493819I44039J-51181D01*
G01*
X2740000Y1576850D02*
G03*
X2790000Y1576850I25000J0D01*
G01*
X3010399Y711823D02*
G03*
X3009758Y619518I39601J-46429D01*
G01*
X3090242Y619125D02*
G03*
X3089601Y711430I-40242J45875D01*
G01*
X340000Y549804D02*
Y775000D01*
X840000D01*
Y549804D02*
Y775000D01*
X340000Y549804D02*
X840000D01*
X1635000Y1970000D02*
X2085000D01*
Y1820000D02*
Y1970000D01*
X1635000Y1820000D02*
X2085000D01*
X1635000D02*
Y1970000D01*
X2266062Y108624D02*
Y970830D01*
Y108624D02*
X2390866D01*
X2266062Y970828D02*
X2390866D01*
X2444016Y155670D02*
Y923782D01*
X2218818Y488544D02*
X2266062D01*
X2218818D02*
Y590906D01*
X2266062D01*
X2899882Y1680040D02*
X3060118D01*
X2899882Y1959960D02*
X3060118D01*
Y1680040D02*
Y1959960D01*
X2899882Y1680040D02*
Y1959960D01*
X2234882Y1955040D02*
X2395118D01*
X2234882Y2234960D02*
X2395118D01*
Y1955040D02*
Y2234960D01*
X2234882Y1955040D02*
Y2234960D01*
X455000Y1705000D02*
X605000D01*
Y2155000D01*
X455000D02*
X605000D01*
X455000Y1705000D02*
Y2155000D01*
X2869330Y183150D02*
Y1576850D01*
X2660670Y183150D02*
Y1576850D01*
X2790000D02*
X2869330D01*
X2660670D02*
X2740000D01*
X2660670Y183150D02*
X2869330D01*
X2670000Y85000D02*
Y115000D01*
X2870000D01*
Y55000D02*
Y115000D01*
X2670000Y55000D02*
X2870000D01*
X2670000D02*
Y85000D01*
X2870000D02*
X2879000D01*
X2661000D02*
X2670000D01*
X2075000Y2075000D02*
Y2225000D01*
X1625000D02*
X2075000D01*
X1625000Y2075000D02*
Y2225000D01*
Y2075000D02*
X2075000D01*
X2234882Y1525040D02*
Y1804960D01*
X2395118Y1525040D02*
Y1804960D01*
X2234882D02*
X2395118D01*
X2234882Y1525040D02*
X2395118D01*
Y1105040D02*
Y1384960D01*
X2234882Y1105040D02*
Y1384960D01*
Y1105040D02*
X2395118D01*
X2234882Y1384960D02*
X2395118D01*
X2563308Y1701062D02*
X2776692D01*
X2563308D02*
Y1935314D01*
X2776692D01*
Y1701062D02*
Y1935314D01*
X125000Y1750000D02*
Y2150000D01*
Y1750000D02*
X225000D01*
Y1700000D02*
Y1750000D01*
Y1700000D02*
X325000D01*
Y2150000D01*
X125000D02*
X325000D01*
X460000Y49804D02*
X860000D01*
Y275000D01*
X460000D02*
X860000D01*
X460000Y49804D02*
Y275000D01*
X1675276Y277204D02*
X2084724D01*
X1675276Y96102D02*
Y277204D01*
Y96102D02*
X2084724D01*
Y277204D01*
X1675276Y257520D02*
X2084724D01*
X1980000Y531000D02*
Y540000D01*
Y740000D02*
Y749000D01*
Y540000D02*
X2010000D01*
Y740000D01*
X1950000D02*
X2010000D01*
X1950000Y540000D02*
Y740000D01*
Y540000D02*
X1980000D01*
X1395000Y95000D02*
X1404000D01*
X1186000D02*
X1195000D01*
X1395000D02*
Y125000D01*
X1195000D02*
X1395000D01*
X1195000Y65000D02*
Y125000D01*
Y65000D02*
X1395000D01*
Y95000D01*
D38*
X2841772Y1537480D02*
G03*
X2841772Y1537480I-11811J0D01*
G01*
%TF.MD5,71c1488b1016cd725a3d0c7152010348*%
M02*
