%TF.GenerationSoftware,Altium Limited,Altium Designer,20.2.7 (254)*%
G04 Layer_Color=16711935*
%FSLAX26Y26*%
%MOIN*%
%TF.SameCoordinates,9B8E3E2B-FE8D-437B-BC4F-748A5F5A7EBC*%
%TF.FilePolarity,Negative*%
%TF.FileFunction,Soldermask,Bot*%
%TF.Part,Single*%
G01*
G75*
%TA.AperFunction,ComponentPad*%
%ADD15R,0.078740X0.078740*%
%ADD16C,0.078740*%
%ADD18R,0.057087X0.057087*%
%ADD19C,0.057087*%
%ADD31C,0.061024*%
%ADD32R,0.061024X0.061024*%
%ADD39C,0.078866*%
%ADD40R,0.078866X0.078866*%
%ADD41C,0.055244*%
%ADD42C,0.067843*%
%ADD43C,0.058000*%
%ADD44R,0.067843X0.067843*%
%ADD45C,0.059181*%
%ADD46R,0.059181X0.059181*%
%TA.AperFunction,ViaPad*%
%ADD47O,0.069024X0.031622*%
%TA.AperFunction,ComponentPad*%
%ADD48R,0.067055X0.067055*%
%ADD49C,0.067055*%
%ADD50C,0.059181*%
%ADD51C,0.063118*%
%ADD52R,0.055244X0.055244*%
%ADD53R,0.074929X0.074929*%
%ADD54C,0.074929*%
%TA.AperFunction,ViaPad*%
%ADD55C,0.058000*%
D15*
X1081574Y238938D02*
D03*
X401576Y933938D02*
D03*
X1081576D02*
D03*
Y1648938D02*
D03*
X1756576Y933936D02*
D03*
D16*
X1081574Y731064D02*
D03*
X1278426Y238938D02*
D03*
Y731064D02*
D03*
X598426Y1426064D02*
D03*
Y933938D02*
D03*
X401576Y1426064D02*
D03*
X1278426D02*
D03*
Y933938D02*
D03*
X1081576Y1426064D02*
D03*
X1278426Y2141064D02*
D03*
Y1648938D02*
D03*
X1081576Y2141064D02*
D03*
X1953426Y1426062D02*
D03*
Y933936D02*
D03*
X1756576Y1426062D02*
D03*
D18*
X1730000Y495000D02*
D03*
D19*
Y595000D02*
D03*
D31*
X337166Y155000D02*
D03*
X160000D02*
D03*
X337166Y410906D02*
D03*
D32*
X160000D02*
D03*
D39*
X2525000Y2115000D02*
D03*
X2625000D02*
D03*
X2725000D02*
D03*
X390000Y675000D02*
D03*
X690000D02*
D03*
X590000D02*
D03*
X490000D02*
D03*
X510000Y175000D02*
D03*
X610000D02*
D03*
X710000D02*
D03*
D40*
X2825000Y2115000D02*
D03*
X790000Y675000D02*
D03*
X810000Y175000D02*
D03*
D41*
X2010000Y1895000D02*
D03*
X1710000D02*
D03*
X530000Y1780000D02*
D03*
Y2080000D02*
D03*
X2000000Y2150000D02*
D03*
X1700000D02*
D03*
X225000Y1850000D02*
D03*
Y1950000D02*
D03*
D42*
X2345000Y598780D02*
D03*
Y362560D02*
D03*
Y480670D02*
D03*
Y716890D02*
D03*
Y835000D02*
D03*
D43*
X2422166Y126340D02*
D03*
Y953112D02*
D03*
D44*
X2345000Y244450D02*
D03*
D45*
X2980000Y1720000D02*
D03*
X2315000Y1995000D02*
D03*
Y1565000D02*
D03*
Y1345000D02*
D03*
D46*
X2980000Y1920000D02*
D03*
X2315000Y2195000D02*
D03*
Y1765000D02*
D03*
Y1145000D02*
D03*
D47*
X65000Y2282204D02*
D03*
Y80000D02*
D03*
X835000Y1180000D02*
D03*
X1545000D02*
D03*
Y2020000D02*
D03*
X3052796Y2280000D02*
D03*
X3055000Y80000D02*
D03*
D48*
X2915000Y1530000D02*
D03*
X2620000Y1830000D02*
D03*
D49*
X2915000Y1430000D02*
D03*
Y1330000D02*
D03*
Y1230000D02*
D03*
Y1130000D02*
D03*
Y1030000D02*
D03*
Y930000D02*
D03*
Y830000D02*
D03*
Y730000D02*
D03*
Y630000D02*
D03*
Y530000D02*
D03*
Y430000D02*
D03*
Y330000D02*
D03*
Y230000D02*
D03*
X2615000Y1530000D02*
D03*
Y1430000D02*
D03*
Y1330000D02*
D03*
Y1230000D02*
D03*
Y1130000D02*
D03*
Y1030000D02*
D03*
Y930000D02*
D03*
Y830000D02*
D03*
Y730000D02*
D03*
Y630000D02*
D03*
Y530000D02*
D03*
Y430000D02*
D03*
Y330000D02*
D03*
Y230000D02*
D03*
X2720000Y1830000D02*
D03*
D50*
X3050000Y603976D02*
D03*
Y726024D02*
D03*
D51*
X2620000Y85000D02*
D03*
X2920000D02*
D03*
X1445000Y95000D02*
D03*
X1980000Y790000D02*
D03*
Y490000D02*
D03*
X1145000Y95000D02*
D03*
D52*
X225000Y2050000D02*
D03*
D53*
X1980000Y165000D02*
D03*
D54*
X1880000D02*
D03*
X1780000D02*
D03*
D55*
X2229000Y775000D02*
D03*
X2899000Y1711000D02*
D03*
%TF.MD5,fc5e3e3cf982f1281d639c43cadfde21*%
M02*
