%TF.GenerationSoftware,Altium Limited,Altium Designer,20.2.7 (254)*%
G04 Layer_Physical_Order=2*
G04 Layer_Color=16711680*
%FSLAX26Y26*%
%MOIN*%
%TF.SameCoordinates,9B8E3E2B-FE8D-437B-BC4F-748A5F5A7EBC*%
%TF.FilePolarity,Positive*%
%TF.FileFunction,Copper,L2,Bot,Signal*%
%TF.Part,Single*%
G01*
G75*
%TA.AperFunction,Conductor*%
%ADD10C,0.015000*%
%ADD11C,0.020000*%
%TA.AperFunction,ComponentPad*%
%ADD13C,0.070866*%
%ADD14R,0.070866X0.070866*%
%ADD15R,0.078740X0.078740*%
%ADD16C,0.078740*%
%ADD17C,0.047244*%
%ADD18R,0.057087X0.057087*%
%ADD19C,0.057087*%
%ADD20C,0.059843*%
%ADD21C,0.050000*%
%ADD22R,0.059843X0.059843*%
%ADD23C,0.051181*%
%ADD24R,0.051181X0.051181*%
%TA.AperFunction,ViaPad*%
%ADD25O,0.061024X0.023622*%
%TA.AperFunction,ComponentPad*%
%ADD26R,0.059055X0.059055*%
%ADD27C,0.059055*%
%ADD28C,0.051181*%
%ADD29C,0.055118*%
%ADD30R,0.047244X0.047244*%
%ADD31C,0.061024*%
%ADD32R,0.061024X0.061024*%
%ADD33R,0.066929X0.066929*%
%ADD34C,0.066929*%
%TA.AperFunction,ViaPad*%
%ADD35C,0.050000*%
G36*
X2575472Y1790490D02*
X2355590D01*
Y1805590D01*
X2359982Y1807059D01*
X2575472D01*
Y1790490D01*
D02*
G37*
G36*
X2908862Y1755090D02*
X2906526Y1750354D01*
X2899000Y1751345D01*
X2888558Y1749970D01*
X2878827Y1745940D01*
X2870472Y1739528D01*
X2866184Y1733941D01*
X2355590D01*
Y1739510D01*
X2655000D01*
X2664755Y1741450D01*
X2673024Y1746976D01*
X2712168Y1786120D01*
X2720000Y1785088D01*
X2731624Y1786619D01*
X2742456Y1791105D01*
X2751757Y1798243D01*
X2756567Y1804510D01*
X2859442D01*
X2908862Y1755090D01*
D02*
G37*
G36*
X0Y2375000D02*
X245D01*
X2873Y2370747D01*
X2872Y2370745D01*
X0Y2365000D01*
X10000Y2375000D01*
X3155000D01*
Y10000D01*
X3145000Y0D01*
X2709331D01*
X2707814Y5000D01*
X2709710Y6266D01*
X2781222Y77778D01*
X2786195Y85221D01*
X2787941Y94000D01*
Y270498D01*
X2871255Y353812D01*
X2875494Y350979D01*
X2871619Y341624D01*
X2870088Y330000D01*
X2871619Y318376D01*
X2876105Y307544D01*
X2883243Y298243D01*
X2892544Y291105D01*
X2903376Y286619D01*
X2915000Y285088D01*
X2926624Y286619D01*
X2937456Y291105D01*
X2946757Y298243D01*
X2953895Y307544D01*
X2958381Y318376D01*
X2959912Y330000D01*
X2958461Y341018D01*
X3120222Y502778D01*
X3125195Y510221D01*
X3126941Y519000D01*
Y1448000D01*
X3125195Y1456779D01*
X3120222Y1464222D01*
X2923222Y1661222D01*
X2915779Y1666195D01*
X2910421Y1667260D01*
X2909943Y1669588D01*
X2910296Y1672383D01*
X2919173Y1676060D01*
X2927528Y1682472D01*
X2933940Y1690827D01*
X2937970Y1700558D01*
X2938148Y1701906D01*
X2943280Y1702582D01*
X2944544Y1699530D01*
X2951050Y1691051D01*
X2959530Y1684544D01*
X2969404Y1680454D01*
X2980000Y1679059D01*
X2990596Y1680454D01*
X3000470Y1684544D01*
X3008950Y1691051D01*
X3015456Y1699530D01*
X3019546Y1709404D01*
X3020941Y1720000D01*
X3019546Y1730596D01*
X3015456Y1740470D01*
X3008950Y1748949D01*
X3000470Y1755456D01*
X2990596Y1759546D01*
X2980000Y1760941D01*
X2975676Y1760372D01*
X2888024Y1848024D01*
X2879755Y1853550D01*
X2870000Y1855490D01*
X2756567D01*
X2751757Y1861757D01*
X2742456Y1868895D01*
X2731624Y1873381D01*
X2720000Y1874912D01*
X2708376Y1873381D01*
X2697544Y1868895D01*
X2688243Y1861757D01*
X2681105Y1852456D01*
X2676619Y1841624D01*
X2675088Y1830000D01*
X2676119Y1822168D01*
X2669147Y1815195D01*
X2664528Y1817108D01*
Y1874527D01*
X2575472D01*
Y1852941D01*
X2329502D01*
X2038198Y2144245D01*
X2038955Y2150000D01*
X2037628Y2160082D01*
X2033736Y2169478D01*
X2027546Y2177546D01*
X2019478Y2183736D01*
X2010082Y2187628D01*
X2000000Y2188955D01*
X1989918Y2187628D01*
X1980522Y2183736D01*
X1972454Y2177546D01*
X1966264Y2169478D01*
X1962372Y2160082D01*
X1961045Y2150000D01*
X1962372Y2139918D01*
X1966264Y2130522D01*
X1972454Y2122454D01*
X1980522Y2116264D01*
X1989918Y2112372D01*
X2000000Y2111045D01*
X2005755Y2111802D01*
X2303778Y1813778D01*
X2308549Y1810591D01*
X2307033Y1805591D01*
X2274410D01*
Y1790490D01*
X2150558D01*
X2048617Y1892431D01*
X2048955Y1895000D01*
X2047628Y1905082D01*
X2043736Y1914478D01*
X2037546Y1922546D01*
X2029478Y1928736D01*
X2020082Y1932628D01*
X2010000Y1933955D01*
X1999918Y1932628D01*
X1990522Y1928736D01*
X1982454Y1922546D01*
X1980877Y1920490D01*
X1965558D01*
X1738617Y2147431D01*
X1738955Y2150000D01*
X1737628Y2160082D01*
X1733736Y2169478D01*
X1727546Y2177546D01*
X1719478Y2183736D01*
X1710082Y2187628D01*
X1700000Y2188955D01*
X1689918Y2187628D01*
X1680522Y2183736D01*
X1672454Y2177546D01*
X1670877Y2175490D01*
X1498936D01*
X1498422Y2175387D01*
X1497904Y2175469D01*
X1325907Y2168499D01*
X1317203Y2179841D01*
X1305846Y2188556D01*
X1292620Y2194035D01*
X1278426Y2195903D01*
X1264233Y2194035D01*
X1251006Y2188556D01*
X1239649Y2179841D01*
X1230934Y2168484D01*
X1225455Y2155258D01*
X1223587Y2141064D01*
X1225455Y2126870D01*
X1230934Y2113644D01*
X1239649Y2102287D01*
X1251006Y2093572D01*
X1264233Y2088093D01*
X1278426Y2086225D01*
X1292620Y2088093D01*
X1305846Y2093572D01*
X1317203Y2102287D01*
X1325918Y2113644D01*
X1327533Y2117543D01*
X1499452Y2124510D01*
X1670877D01*
X1672454Y2122454D01*
X1680522Y2116264D01*
X1689918Y2112372D01*
X1700000Y2111045D01*
X1702569Y2111383D01*
X1936976Y1876976D01*
X1945245Y1871450D01*
X1955000Y1869510D01*
X1980877D01*
X1982454Y1867454D01*
X1990522Y1861264D01*
X1999918Y1857372D01*
X2010000Y1856045D01*
X2012569Y1856383D01*
X2121976Y1746976D01*
X2130245Y1741450D01*
X2140000Y1739510D01*
X2274410D01*
Y1733941D01*
X1143638D01*
X1134859Y1732195D01*
X1127416Y1727222D01*
X1103503Y1703308D01*
X1027206D01*
Y1594568D01*
X1135946D01*
Y1670865D01*
X1153140Y1688059D01*
X1233610D01*
X1236076Y1683059D01*
X1230934Y1676358D01*
X1225455Y1663131D01*
X1223587Y1648938D01*
X1225455Y1634745D01*
X1230934Y1621518D01*
X1239649Y1610161D01*
X1251006Y1601446D01*
X1264233Y1595967D01*
X1278426Y1594099D01*
X1292620Y1595967D01*
X1305846Y1601446D01*
X1317203Y1610161D01*
X1325918Y1621518D01*
X1331397Y1634745D01*
X1333265Y1648938D01*
X1331397Y1663131D01*
X1325918Y1676358D01*
X1320776Y1683059D01*
X1323242Y1688059D01*
X2866184D01*
X2870472Y1682472D01*
X2878827Y1676060D01*
X2886358Y1672941D01*
X2885363Y1667941D01*
X1692000D01*
X1683221Y1666195D01*
X1675778Y1661222D01*
X1397498Y1382941D01*
X1318915D01*
X1317705Y1387941D01*
X1325918Y1398644D01*
X1331397Y1411870D01*
X1333265Y1426064D01*
X1331397Y1440257D01*
X1325918Y1453484D01*
X1317203Y1464841D01*
X1305846Y1473556D01*
X1292620Y1479035D01*
X1278426Y1480903D01*
X1264233Y1479035D01*
X1262303Y1478235D01*
X1231514Y1509024D01*
X1223245Y1514550D01*
X1213490Y1516490D01*
X663362D01*
X653607Y1514550D01*
X645338Y1509024D01*
X614549Y1478235D01*
X612620Y1479035D01*
X598426Y1480903D01*
X584232Y1479035D01*
X571006Y1473556D01*
X559649Y1464841D01*
X550934Y1453484D01*
X545455Y1440257D01*
X543587Y1426064D01*
X545455Y1411870D01*
X550934Y1398644D01*
X559147Y1387941D01*
X557937Y1382941D01*
X477142D01*
X452692Y1407392D01*
X454547Y1411870D01*
X456415Y1426064D01*
X454547Y1440257D01*
X449068Y1453484D01*
X440353Y1464841D01*
X428996Y1473556D01*
X415769Y1479035D01*
X401576Y1480903D01*
X387382Y1479035D01*
X374156Y1473556D01*
X362799Y1464841D01*
X354084Y1453484D01*
X348605Y1440257D01*
X346737Y1426064D01*
X348605Y1411870D01*
X354084Y1398644D01*
X362799Y1387287D01*
X374156Y1378572D01*
X387382Y1373093D01*
X401576Y1371225D01*
X415769Y1373093D01*
X420248Y1374948D01*
X451418Y1343778D01*
X458861Y1338805D01*
X467640Y1337059D01*
X1407000D01*
X1415779Y1338805D01*
X1423222Y1343778D01*
X1701502Y1622059D01*
X2333083D01*
X2334997Y1617440D01*
X2322509Y1604952D01*
X2315000Y1605941D01*
X2304404Y1604546D01*
X2294530Y1600456D01*
X2286050Y1593949D01*
X2279544Y1585470D01*
X2275454Y1575596D01*
X2274059Y1565000D01*
X2275454Y1554404D01*
X2279544Y1544530D01*
X2286050Y1536051D01*
X2294530Y1529544D01*
X2304404Y1525454D01*
X2315000Y1524059D01*
X2325596Y1525454D01*
X2335470Y1529544D01*
X2343950Y1536051D01*
X2350456Y1544530D01*
X2354546Y1554404D01*
X2355941Y1565000D01*
X2354952Y1572509D01*
X2371530Y1589087D01*
X2531083D01*
X2532997Y1584468D01*
X2446778Y1498250D01*
X2441805Y1490807D01*
X2440059Y1482028D01*
Y1421502D01*
X2360286Y1341729D01*
X2355801Y1343940D01*
X2355941Y1345000D01*
X2354546Y1355596D01*
X2350456Y1365470D01*
X2343950Y1373949D01*
X2335470Y1380456D01*
X2325596Y1384546D01*
X2315000Y1385941D01*
X2304404Y1384546D01*
X2294530Y1380456D01*
X2286050Y1373949D01*
X2283396Y1370490D01*
X2045046D01*
X2005597Y1409939D01*
X2006397Y1411869D01*
X2008265Y1426062D01*
X2006397Y1440255D01*
X2000918Y1453482D01*
X1992203Y1464839D01*
X1980846Y1473554D01*
X1967620Y1479033D01*
X1953426Y1480901D01*
X1939233Y1479033D01*
X1926006Y1473554D01*
X1914649Y1464839D01*
X1905934Y1453482D01*
X1900455Y1440255D01*
X1898587Y1426062D01*
X1900455Y1411869D01*
X1905934Y1398642D01*
X1914649Y1387285D01*
X1926006Y1378570D01*
X1939233Y1373091D01*
X1953426Y1371223D01*
X1967620Y1373091D01*
X1969549Y1373891D01*
X2016464Y1326976D01*
X2024734Y1321450D01*
X2034488Y1319510D01*
X2283396D01*
X2286050Y1316051D01*
X2294530Y1309544D01*
X2304404Y1305454D01*
X2315000Y1304059D01*
X2316060Y1304199D01*
X2318271Y1299714D01*
X2290498Y1271941D01*
X1943140D01*
X1807691Y1407390D01*
X1809547Y1411869D01*
X1811415Y1426062D01*
X1809547Y1440255D01*
X1804068Y1453482D01*
X1795353Y1464839D01*
X1783996Y1473554D01*
X1770770Y1479033D01*
X1756576Y1480901D01*
X1742382Y1479033D01*
X1729156Y1473554D01*
X1717799Y1464839D01*
X1709084Y1453482D01*
X1703605Y1440255D01*
X1701737Y1426062D01*
X1703605Y1411869D01*
X1709084Y1398642D01*
X1717799Y1387285D01*
X1729156Y1378570D01*
X1742382Y1373091D01*
X1756576Y1371223D01*
X1770770Y1373091D01*
X1775248Y1374947D01*
X1917416Y1232778D01*
X1924859Y1227805D01*
X1933638Y1226059D01*
X2300000D01*
X2308779Y1227805D01*
X2316222Y1232778D01*
X2479222Y1395778D01*
X2484195Y1403221D01*
X2485941Y1412000D01*
Y1472526D01*
X2571010Y1557594D01*
X2573516Y1557295D01*
X2575791Y1553044D01*
X2575906Y1551974D01*
X2571619Y1541624D01*
X2570088Y1530000D01*
X2571619Y1518376D01*
X2576105Y1507544D01*
X2583243Y1498243D01*
X2592544Y1491105D01*
X2603376Y1486619D01*
X2615000Y1485088D01*
X2626624Y1486619D01*
X2637456Y1491105D01*
X2646757Y1498243D01*
X2653895Y1507544D01*
X2658381Y1518376D01*
X2659397Y1526089D01*
X2664676Y1527881D01*
X2712059Y1480498D01*
Y1410000D01*
X2713805Y1401221D01*
X2718778Y1393778D01*
X2871539Y1241018D01*
X2870088Y1230000D01*
X2871619Y1218376D01*
X2876105Y1207544D01*
X2883243Y1198243D01*
X2892544Y1191105D01*
X2903376Y1186619D01*
X2915000Y1185088D01*
X2926624Y1186619D01*
X2937456Y1191105D01*
X2946757Y1198243D01*
X2953895Y1207544D01*
X2958381Y1218376D01*
X2959912Y1230000D01*
X2958381Y1241624D01*
X2953895Y1252456D01*
X2946757Y1261757D01*
X2937456Y1268895D01*
X2926624Y1273381D01*
X2915000Y1274912D01*
X2903982Y1273461D01*
X2891188Y1286255D01*
X2894021Y1290494D01*
X2903376Y1286619D01*
X2915000Y1285088D01*
X2926624Y1286619D01*
X2937456Y1291105D01*
X2946757Y1298243D01*
X2953895Y1307544D01*
X2958381Y1318376D01*
X2959912Y1330000D01*
X2958381Y1341624D01*
X2953895Y1352456D01*
X2946757Y1361757D01*
X2937456Y1368895D01*
X2926624Y1373381D01*
X2915000Y1374912D01*
X2903376Y1373381D01*
X2892544Y1368895D01*
X2883243Y1361757D01*
X2876105Y1352456D01*
X2871619Y1341624D01*
X2870088Y1330000D01*
X2871619Y1318376D01*
X2875494Y1309021D01*
X2871255Y1306188D01*
X2757941Y1419502D01*
Y1490000D01*
X2756195Y1498779D01*
X2751222Y1506222D01*
X2672975Y1584468D01*
X2674889Y1589087D01*
X2823470D01*
X2870472Y1542084D01*
Y1485473D01*
X2959528D01*
Y1553496D01*
X2964147Y1555410D01*
X3081059Y1438498D01*
Y759657D01*
X3076059Y757191D01*
X3070470Y761480D01*
X3060596Y765570D01*
X3050000Y766965D01*
X3039404Y765570D01*
X3029530Y761480D01*
X3021050Y754973D01*
X3017965Y750953D01*
X2954517D01*
X2953895Y752456D01*
X2946757Y761757D01*
X2937456Y768895D01*
X2926624Y773381D01*
X2915000Y774912D01*
X2903376Y773381D01*
X2892544Y768895D01*
X2883243Y761757D01*
X2876105Y752456D01*
X2871619Y741624D01*
X2870088Y730000D01*
X2871619Y718376D01*
X2876105Y707544D01*
X2883243Y698243D01*
X2892544Y691105D01*
X2903376Y686619D01*
X2915000Y685088D01*
X2926624Y686619D01*
X2937456Y691105D01*
X2946757Y698243D01*
X2951997Y705071D01*
X3014914D01*
X3021050Y697074D01*
X3029530Y690568D01*
X3039404Y686478D01*
X3050000Y685083D01*
X3060596Y686478D01*
X3070470Y690568D01*
X3076059Y694857D01*
X3081059Y692391D01*
Y637609D01*
X3076059Y635143D01*
X3070470Y639432D01*
X3060596Y643522D01*
X3050000Y644917D01*
X3039404Y643522D01*
X3029530Y639432D01*
X3021050Y632926D01*
X3016440Y626917D01*
X2963681D01*
X2959912Y630000D01*
X2958381Y641624D01*
X2953895Y652456D01*
X2946757Y661757D01*
X2937456Y668895D01*
X2926624Y673381D01*
X2915000Y674912D01*
X2903376Y673381D01*
X2892544Y668895D01*
X2883243Y661757D01*
X2876105Y652456D01*
X2871619Y641624D01*
X2870088Y630000D01*
X2871619Y618376D01*
X2876105Y607544D01*
X2883243Y598243D01*
X2892544Y591105D01*
X2903376Y586619D01*
X2915000Y585088D01*
X2926624Y586619D01*
X2934569Y589909D01*
X2936724Y587754D01*
X2944166Y582782D01*
X2952945Y581035D01*
X3016440D01*
X3021050Y575027D01*
X3029530Y568520D01*
X3039404Y564430D01*
X3050000Y563035D01*
X3060596Y564430D01*
X3070470Y568520D01*
X3076059Y572809D01*
X3081059Y570343D01*
Y528502D01*
X2958745Y406188D01*
X2954506Y409021D01*
X2958381Y418376D01*
X2959912Y430000D01*
X2958381Y441624D01*
X2953895Y452456D01*
X2946757Y461757D01*
X2937456Y468895D01*
X2926624Y473381D01*
X2915000Y474912D01*
X2903376Y473381D01*
X2894021Y469506D01*
X2891188Y473745D01*
X2903982Y486539D01*
X2915000Y485088D01*
X2926624Y486619D01*
X2937456Y491105D01*
X2946757Y498243D01*
X2953895Y507544D01*
X2958381Y518376D01*
X2959912Y530000D01*
X2958381Y541624D01*
X2953895Y552456D01*
X2946757Y561757D01*
X2937456Y568895D01*
X2926624Y573381D01*
X2915000Y574912D01*
X2903376Y573381D01*
X2892544Y568895D01*
X2883243Y561757D01*
X2876105Y552456D01*
X2871619Y541624D01*
X2870088Y530000D01*
X2871539Y518982D01*
X2713778Y361222D01*
X2708805Y353779D01*
X2707059Y345000D01*
Y204502D01*
X2673470Y170913D01*
X2668467D01*
X2666553Y175532D01*
X2686222Y195200D01*
X2691195Y202643D01*
X2692941Y211422D01*
Y275000D01*
X2691195Y283779D01*
X2686222Y291222D01*
X2658461Y318982D01*
X2659912Y330000D01*
X2658381Y341624D01*
X2653895Y352456D01*
X2646757Y361757D01*
X2637456Y368895D01*
X2626624Y373381D01*
X2615000Y374912D01*
X2603376Y373381D01*
X2592544Y368895D01*
X2583243Y361757D01*
X2576105Y352456D01*
X2571619Y341624D01*
X2570088Y330000D01*
X2571619Y318376D01*
X2575494Y309021D01*
X2571255Y306188D01*
X2439222Y438222D01*
X2431779Y443195D01*
X2423000Y444941D01*
X2379884D01*
X2378043Y449941D01*
X2384019Y457729D01*
X2554828D01*
X2571539Y441018D01*
X2570088Y430000D01*
X2571619Y418376D01*
X2576105Y407544D01*
X2583243Y398243D01*
X2592544Y391105D01*
X2603376Y386619D01*
X2615000Y385088D01*
X2626624Y386619D01*
X2637456Y391105D01*
X2646757Y398243D01*
X2653895Y407544D01*
X2658381Y418376D01*
X2659912Y430000D01*
X2658381Y441624D01*
X2653895Y452456D01*
X2646757Y461757D01*
X2637456Y468895D01*
X2626624Y473381D01*
X2615000Y474912D01*
X2603982Y473461D01*
X2591188Y486255D01*
X2594021Y490494D01*
X2603376Y486619D01*
X2615000Y485088D01*
X2626624Y486619D01*
X2637456Y491105D01*
X2646757Y498243D01*
X2653895Y507544D01*
X2658381Y518376D01*
X2659912Y530000D01*
X2658381Y541624D01*
X2653895Y552456D01*
X2646757Y561757D01*
X2637456Y568895D01*
X2626624Y573381D01*
X2615000Y574912D01*
X2603376Y573381D01*
X2592544Y568895D01*
X2583243Y561757D01*
X2576477Y552941D01*
X2423282D01*
X2388812Y587411D01*
X2390309Y598780D01*
X2388765Y610507D01*
X2384239Y621434D01*
X2377038Y630818D01*
X2367654Y638019D01*
X2356727Y642545D01*
X2345000Y644089D01*
X2333273Y642545D01*
X2322346Y638019D01*
X2312962Y630818D01*
X2305761Y621434D01*
X2301235Y610507D01*
X2299691Y598780D01*
X2301235Y587053D01*
X2305761Y576126D01*
X2312962Y566742D01*
X2322346Y559541D01*
X2333273Y555015D01*
X2345000Y553471D01*
X2356369Y554968D01*
X2397558Y513778D01*
X2405001Y508805D01*
X2405980Y508611D01*
X2405487Y503611D01*
X2384019D01*
X2377038Y512708D01*
X2367654Y519909D01*
X2356727Y524435D01*
X2345000Y525979D01*
X2333273Y524435D01*
X2322346Y519909D01*
X2312962Y512708D01*
X2305761Y503324D01*
X2301235Y492397D01*
X2299691Y480670D01*
X2301235Y468943D01*
X2305761Y458016D01*
X2311957Y449941D01*
X2310116Y444941D01*
X2277502D01*
X2216222Y506222D01*
X2208779Y511195D01*
X2200000Y512941D01*
X2016041D01*
X2010353Y520353D01*
X2001463Y527175D01*
X1991110Y531463D01*
X1980000Y532926D01*
X1968890Y531463D01*
X1958537Y527175D01*
X1952941Y522881D01*
X1947941Y525347D01*
Y652000D01*
X1946195Y660779D01*
X1941222Y668222D01*
X1736222Y873222D01*
X1734210Y874566D01*
X1735726Y879566D01*
X1810946D01*
Y988306D01*
X1702206D01*
Y879941D01*
X1303207D01*
X1302212Y884941D01*
X1305846Y886446D01*
X1317203Y895161D01*
X1325918Y906518D01*
X1331397Y919745D01*
X1333265Y933938D01*
X1331397Y948131D01*
X1325918Y961358D01*
X1317203Y972715D01*
X1305846Y981430D01*
X1292620Y986909D01*
X1278426Y988777D01*
X1264233Y986909D01*
X1251006Y981430D01*
X1239649Y972715D01*
X1230934Y961358D01*
X1225455Y948131D01*
X1223587Y933938D01*
X1225455Y919745D01*
X1230934Y906518D01*
X1239649Y895161D01*
X1251006Y886446D01*
X1254640Y884941D01*
X1253645Y879941D01*
X1168016D01*
X1135946Y912011D01*
Y988308D01*
X1027206D01*
Y879568D01*
X1103503D01*
X1142292Y840778D01*
X1149735Y835805D01*
X1158514Y834059D01*
X1710498D01*
X1902059Y642498D01*
Y470000D01*
X1903805Y461221D01*
X1908778Y453778D01*
X1968778Y393778D01*
X1976221Y388805D01*
X1985000Y387059D01*
X2118498D01*
X2147582Y357975D01*
X2145119Y353367D01*
X2143190Y353751D01*
X335810D01*
X327031Y352005D01*
X319588Y347032D01*
X171892Y199336D01*
X171881Y199340D01*
X160000Y200905D01*
X148119Y199340D01*
X137048Y194755D01*
X133425Y191975D01*
X128941Y194186D01*
Y365394D01*
X205512D01*
Y456418D01*
X128941D01*
Y814498D01*
X321502Y1007059D01*
X2576477D01*
X2583243Y998243D01*
X2592544Y991105D01*
X2603376Y986619D01*
X2615000Y985088D01*
X2626624Y986619D01*
X2637456Y991105D01*
X2646757Y998243D01*
X2653895Y1007544D01*
X2658381Y1018376D01*
X2659912Y1030000D01*
X2658381Y1041624D01*
X2653895Y1052456D01*
X2646757Y1061757D01*
X2637456Y1068895D01*
X2626624Y1073381D01*
X2615000Y1074912D01*
X2603376Y1073381D01*
X2592544Y1068895D01*
X2583243Y1061757D01*
X2576477Y1052941D01*
X312000D01*
X303221Y1051195D01*
X295778Y1046222D01*
X89778Y840222D01*
X84805Y832779D01*
X83059Y824000D01*
Y140760D01*
X79043Y137782D01*
X76639Y138511D01*
X65000Y139657D01*
X53361Y138511D01*
X42170Y135116D01*
X31856Y129603D01*
X22816Y122184D01*
X15397Y113144D01*
X9884Y102830D01*
X6489Y91639D01*
X5343Y80000D01*
X6489Y68361D01*
X9884Y57170D01*
X15397Y46856D01*
X22816Y37816D01*
X31856Y30397D01*
X42170Y24884D01*
X53361Y21489D01*
X65000Y20343D01*
X76639Y21489D01*
X87830Y24884D01*
X98144Y30397D01*
X107184Y37816D01*
X114603Y46856D01*
X120116Y57170D01*
X123511Y68361D01*
X124459Y77988D01*
X129058Y80701D01*
X129610Y80724D01*
X138040Y79047D01*
X181960D01*
X190739Y80793D01*
X198182Y85766D01*
X293555Y181140D01*
X297411Y177952D01*
X292826Y166881D01*
X291262Y155000D01*
X292826Y143119D01*
X297411Y132048D01*
X304707Y122541D01*
X314214Y115246D01*
X325285Y110660D01*
X337166Y109096D01*
X347632Y110473D01*
X349911Y108951D01*
X359666Y107010D01*
X467500D01*
X477255Y108951D01*
X485524Y114476D01*
X496904Y125856D01*
X510000Y124132D01*
X523166Y125865D01*
X535434Y130947D01*
X545969Y139031D01*
X554053Y149566D01*
X557294Y157390D01*
X562706D01*
X565947Y149566D01*
X574031Y139031D01*
X584566Y130947D01*
X596834Y125865D01*
X610000Y124132D01*
X623166Y125865D01*
X635434Y130947D01*
X645969Y139031D01*
X654053Y149566D01*
X657294Y157390D01*
X662706D01*
X665947Y149566D01*
X674031Y139031D01*
X684566Y130947D01*
X696834Y125865D01*
X710000Y124132D01*
X723166Y125865D01*
X735434Y130947D01*
X745969Y139031D01*
X754010Y149510D01*
X759567D01*
Y124567D01*
X824385D01*
X871976Y76976D01*
X880245Y71451D01*
X890000Y69510D01*
X1110915D01*
X1114647Y64647D01*
X1123537Y57825D01*
X1133890Y53536D01*
X1145000Y52074D01*
X1156110Y53536D01*
X1166463Y57825D01*
X1175353Y64647D01*
X1182175Y73537D01*
X1186464Y83890D01*
X1187926Y95000D01*
X1187126Y101078D01*
X1225558Y139510D01*
X1428179D01*
X1429174Y134510D01*
X1423537Y132175D01*
X1414647Y125353D01*
X1407825Y116463D01*
X1403536Y106110D01*
X1402074Y95000D01*
X1403536Y83890D01*
X1407825Y73537D01*
X1414647Y64647D01*
X1423537Y57825D01*
X1433890Y53536D01*
X1445000Y52074D01*
X1456110Y53536D01*
X1466463Y57825D01*
X1475353Y64647D01*
X1482175Y73537D01*
X1486464Y83890D01*
X1487926Y95000D01*
X1486464Y106110D01*
X1482175Y116463D01*
X1475353Y125353D01*
X1466463Y132175D01*
X1460826Y134510D01*
X1461821Y139510D01*
X1738471D01*
X1745435Y130435D01*
X1755559Y122666D01*
X1767348Y117783D01*
X1780000Y116117D01*
X1792652Y117783D01*
X1804441Y122666D01*
X1814565Y130435D01*
X1822334Y140559D01*
X1827217Y152348D01*
X1827478Y154333D01*
X1832522D01*
X1832783Y152348D01*
X1837666Y140559D01*
X1845435Y130435D01*
X1855559Y122666D01*
X1867348Y117783D01*
X1880000Y116117D01*
X1892652Y117783D01*
X1904441Y122666D01*
X1914565Y130435D01*
X1922334Y140559D01*
X1926535Y150703D01*
X1931535Y149708D01*
Y116535D01*
X2028465D01*
Y213464D01*
X1931535D01*
Y180292D01*
X1926535Y179297D01*
X1922334Y189441D01*
X1914565Y199565D01*
X1904441Y207334D01*
X1892652Y212217D01*
X1880000Y213883D01*
X1867348Y212217D01*
X1855559Y207334D01*
X1845435Y199565D01*
X1837666Y189441D01*
X1832783Y177652D01*
X1832522Y175667D01*
X1827478D01*
X1827217Y177652D01*
X1822334Y189441D01*
X1814565Y199565D01*
X1804441Y207334D01*
X1792652Y212217D01*
X1780000Y213883D01*
X1767348Y212217D01*
X1755559Y207334D01*
X1745435Y199565D01*
X1738471Y190490D01*
X1312813D01*
X1311116Y195490D01*
X1317203Y200161D01*
X1325918Y211518D01*
X1331397Y224744D01*
X1333265Y238938D01*
X1331397Y253131D01*
X1325918Y266358D01*
X1320922Y272869D01*
X1323388Y277869D01*
X2017688D01*
X2289290Y6266D01*
X2291186Y5000D01*
X2289669Y0D01*
X-5000D01*
Y2373467D01*
X-381Y2375381D01*
X0Y2375000D01*
D02*
G37*
G36*
X1226255Y1442187D02*
X1225455Y1440257D01*
X1223587Y1426064D01*
X1225455Y1411870D01*
X1230934Y1398644D01*
X1239147Y1387941D01*
X1237937Y1382941D01*
X1122065D01*
X1120855Y1387941D01*
X1129068Y1398644D01*
X1134547Y1411870D01*
X1136415Y1426064D01*
X1134547Y1440257D01*
X1129068Y1453484D01*
X1123677Y1460510D01*
X1126142Y1465510D01*
X1202932D01*
X1226255Y1442187D01*
D02*
G37*
G36*
X1039476Y1460510D02*
X1034084Y1453484D01*
X1028605Y1440257D01*
X1026737Y1426064D01*
X1028605Y1411870D01*
X1034084Y1398644D01*
X1042297Y1387941D01*
X1041087Y1382941D01*
X638915D01*
X637705Y1387941D01*
X645918Y1398644D01*
X651397Y1411870D01*
X653265Y1426064D01*
X651397Y1440257D01*
X650597Y1442187D01*
X673920Y1465510D01*
X1037010D01*
X1039476Y1460510D01*
D02*
G37*
G36*
X2251778Y405778D02*
X2259221Y400805D01*
X2268000Y399059D01*
X2311447D01*
X2311454Y399041D01*
X2312548Y394059D01*
X2305761Y385214D01*
X2301235Y374287D01*
X2299691Y362560D01*
X2301235Y350833D01*
X2305761Y339906D01*
X2308432Y336425D01*
X2306220Y331941D01*
X2238502D01*
X2144222Y426222D01*
X2136779Y431195D01*
X2128000Y432941D01*
X1994502D01*
X1984323Y443120D01*
X1985930Y447855D01*
X1991110Y448536D01*
X2001463Y452825D01*
X2010353Y459647D01*
X2016041Y467059D01*
X2190498D01*
X2251778Y405778D01*
D02*
G37*
G36*
X2875494Y450979D02*
X2871619Y441624D01*
X2870088Y430000D01*
X2871539Y418982D01*
X2757560Y305003D01*
X2752941Y306917D01*
Y335498D01*
X2871255Y453812D01*
X2875494Y450979D01*
D02*
G37*
G36*
X2571539Y241018D02*
X2570088Y230000D01*
X2570535Y226604D01*
X2566051Y224392D01*
X2411662Y378782D01*
X2404219Y383755D01*
X2395440Y385501D01*
X2384019D01*
X2377452Y394059D01*
X2378546Y399041D01*
X2378553Y399059D01*
X2413498D01*
X2571539Y241018D01*
D02*
G37*
G36*
X2229000Y286059D02*
X2300079D01*
Y212897D01*
X2295459Y210984D01*
X2224608Y281835D01*
X2227072Y286443D01*
X2229000Y286059D01*
D02*
G37*
G36*
X494237Y223059D02*
X484566Y219053D01*
X474031Y210969D01*
X465947Y200434D01*
X460865Y188166D01*
X459132Y175000D01*
X460856Y161904D01*
X456942Y157990D01*
X382677D01*
X381506Y166881D01*
X376921Y177952D01*
X369625Y187459D01*
X360118Y194755D01*
X349047Y199340D01*
X337166Y200905D01*
X325285Y199340D01*
X314214Y194755D01*
X311026Y198611D01*
X340474Y228059D01*
X493243D01*
X494237Y223059D01*
D02*
G37*
G36*
X1113443Y303250D02*
X1103501Y293308D01*
X1027204D01*
Y184568D01*
X1135944D01*
Y260865D01*
X1152948Y277869D01*
X1233465D01*
X1235930Y272869D01*
X1230934Y266358D01*
X1225455Y253131D01*
X1223587Y238938D01*
X1225455Y224744D01*
X1230934Y211518D01*
X1239649Y200161D01*
X1245736Y195490D01*
X1244039Y190490D01*
X1215000D01*
X1205245Y188549D01*
X1196976Y183024D01*
X1151078Y137126D01*
X1145000Y137926D01*
X1133890Y136464D01*
X1123537Y132175D01*
X1114647Y125353D01*
X1110915Y120490D01*
X900558D01*
X860433Y160615D01*
Y225433D01*
X759567D01*
Y200490D01*
X754010D01*
X745969Y210969D01*
X735434Y219053D01*
X723166Y224135D01*
X710000Y225868D01*
X696834Y224135D01*
X684566Y219053D01*
X674031Y210969D01*
X665947Y200434D01*
X662706Y192610D01*
X657294D01*
X654053Y200434D01*
X645969Y210969D01*
X635434Y219053D01*
X623166Y224135D01*
X610000Y225868D01*
X596834Y224135D01*
X594341Y223102D01*
X550222Y267222D01*
X542779Y272195D01*
X534000Y273941D01*
X330972D01*
X322193Y272195D01*
X314750Y267222D01*
X211640Y164111D01*
X206218Y165761D01*
X205722Y168279D01*
X345312Y307869D01*
X1111529D01*
X1113443Y303250D01*
D02*
G37*
G36*
X2520806Y131750D02*
X2528249Y126778D01*
X2537028Y125031D01*
X2594046D01*
X2595743Y120031D01*
X2589647Y115353D01*
X2582825Y106463D01*
X2578537Y96110D01*
X2577074Y85000D01*
X2577676Y80429D01*
X2573291Y75429D01*
X2433568D01*
X2432172Y77226D01*
X2433836Y82263D01*
X2434287Y82653D01*
X2444860Y87033D01*
X2454260Y94246D01*
X2461473Y103646D01*
X2466008Y114593D01*
X2467554Y126340D01*
X2466008Y138087D01*
X2461473Y149034D01*
X2454260Y158434D01*
X2444860Y165647D01*
X2433913Y170182D01*
X2422166Y171728D01*
X2410419Y170182D01*
X2399472Y165647D01*
X2390072Y158434D01*
X2382859Y149034D01*
X2378324Y138087D01*
X2377902Y134883D01*
X2373168Y133275D01*
X2311534Y194909D01*
X2313447Y199529D01*
X2389921D01*
Y256103D01*
X2394541Y258016D01*
X2520806Y131750D01*
D02*
G37*
G36*
X2742059Y168083D02*
Y103502D01*
X2683986Y45429D01*
X2646554D01*
X2644857Y50429D01*
X2650353Y54647D01*
X2657175Y63537D01*
X2661463Y73890D01*
X2662926Y85000D01*
X2661463Y96110D01*
X2657175Y106463D01*
X2650353Y115353D01*
X2644257Y120031D01*
X2645954Y125031D01*
X2682972D01*
X2691751Y126778D01*
X2699194Y131750D01*
X2737440Y169997D01*
X2742059Y168083D01*
D02*
G37*
G36*
X2391509Y50048D02*
X2389595Y45429D01*
X2315014D01*
X2057193Y303250D01*
X2059107Y307869D01*
X2133688D01*
X2391509Y50048D01*
D02*
G37*
%LPC*%
G36*
X65000Y2341861D02*
X53361Y2340715D01*
X42170Y2337320D01*
X31856Y2331807D01*
X22816Y2324388D01*
X15397Y2315348D01*
X9884Y2305034D01*
X6489Y2293843D01*
X5343Y2282204D01*
X6489Y2270565D01*
X9884Y2259374D01*
X15397Y2249060D01*
X22816Y2240020D01*
X31856Y2232601D01*
X42170Y2227088D01*
X53361Y2223693D01*
X65000Y2222547D01*
X76639Y2223693D01*
X87830Y2227088D01*
X98144Y2232601D01*
X107184Y2240020D01*
X114603Y2249060D01*
X120116Y2259374D01*
X123511Y2270565D01*
X124657Y2282204D01*
X123511Y2293843D01*
X120116Y2305034D01*
X114603Y2315348D01*
X107184Y2324388D01*
X98144Y2331807D01*
X87830Y2337320D01*
X76639Y2340715D01*
X65000Y2341861D01*
D02*
G37*
G36*
X3052796Y2339657D02*
X3041157Y2338511D01*
X3029966Y2335116D01*
X3019652Y2329603D01*
X3010612Y2322184D01*
X3003193Y2313144D01*
X2997680Y2302830D01*
X2994285Y2291639D01*
X2993139Y2280000D01*
X2994285Y2268361D01*
X2997680Y2257170D01*
X3003193Y2246856D01*
X3010612Y2237816D01*
X3019652Y2230397D01*
X3029966Y2224884D01*
X3041157Y2221489D01*
X3052796Y2220343D01*
X3064435Y2221489D01*
X3075626Y2224884D01*
X3085940Y2230397D01*
X3094980Y2237816D01*
X3102399Y2246856D01*
X3107912Y2257170D01*
X3111307Y2268361D01*
X3112453Y2280000D01*
X3111307Y2291639D01*
X3107912Y2302830D01*
X3102399Y2313144D01*
X3094980Y2322184D01*
X3085940Y2329603D01*
X3075626Y2335116D01*
X3064435Y2338511D01*
X3052796Y2339657D01*
D02*
G37*
G36*
X1081576Y2195903D02*
X1067382Y2194035D01*
X1054156Y2188556D01*
X1042799Y2179841D01*
X1034084Y2168484D01*
X1028605Y2155258D01*
X1026737Y2141064D01*
X1028605Y2126870D01*
X1034084Y2113644D01*
X1042799Y2102287D01*
X1054156Y2093572D01*
X1067382Y2088093D01*
X1081576Y2086225D01*
X1095770Y2088093D01*
X1108996Y2093572D01*
X1120353Y2102287D01*
X1129068Y2113644D01*
X1134547Y2126870D01*
X1136415Y2141064D01*
X1134547Y2155258D01*
X1129068Y2168484D01*
X1120353Y2179841D01*
X1108996Y2188556D01*
X1095770Y2194035D01*
X1081576Y2195903D01*
D02*
G37*
G36*
X2355590Y2235590D02*
X2274410D01*
Y2154410D01*
X2319543D01*
X2376976Y2096976D01*
X2385245Y2091450D01*
X2395000Y2089510D01*
X2480990D01*
X2489031Y2079031D01*
X2499566Y2070947D01*
X2511834Y2065865D01*
X2525000Y2064132D01*
X2538166Y2065865D01*
X2550434Y2070947D01*
X2560969Y2079031D01*
X2569053Y2089566D01*
X2572294Y2097390D01*
X2577706D01*
X2580947Y2089566D01*
X2589031Y2079031D01*
X2599566Y2070947D01*
X2611834Y2065865D01*
X2625000Y2064132D01*
X2638166Y2065865D01*
X2650434Y2070947D01*
X2660969Y2079031D01*
X2669053Y2089566D01*
X2672294Y2097390D01*
X2677706D01*
X2680947Y2089566D01*
X2689031Y2079031D01*
X2699566Y2070947D01*
X2711834Y2065865D01*
X2725000Y2064132D01*
X2738166Y2065865D01*
X2750434Y2070947D01*
X2760969Y2079031D01*
X2769053Y2089566D01*
X2769567Y2090806D01*
X2774567Y2089812D01*
Y2064567D01*
X2875433D01*
Y2165433D01*
X2774567D01*
Y2140188D01*
X2769567Y2139194D01*
X2769053Y2140434D01*
X2760969Y2150969D01*
X2750434Y2159053D01*
X2738166Y2164135D01*
X2725000Y2165868D01*
X2711834Y2164135D01*
X2699566Y2159053D01*
X2689031Y2150969D01*
X2680947Y2140434D01*
X2677706Y2132610D01*
X2672294D01*
X2669053Y2140434D01*
X2660969Y2150969D01*
X2650434Y2159053D01*
X2638166Y2164135D01*
X2625000Y2165868D01*
X2611834Y2164135D01*
X2599566Y2159053D01*
X2589031Y2150969D01*
X2580947Y2140434D01*
X2577706Y2132610D01*
X2572294D01*
X2569053Y2140434D01*
X2560969Y2150969D01*
X2550434Y2159053D01*
X2538166Y2164135D01*
X2525000Y2165868D01*
X2511834Y2164135D01*
X2499566Y2159053D01*
X2489031Y2150969D01*
X2480990Y2140490D01*
X2405558D01*
X2355590Y2190457D01*
Y2235590D01*
D02*
G37*
G36*
X530000Y2118955D02*
X519918Y2117628D01*
X510522Y2113736D01*
X502454Y2107546D01*
X500877Y2105490D01*
X255000D01*
X245245Y2103550D01*
X236976Y2098024D01*
X227574Y2088622D01*
X186378D01*
Y2011378D01*
X263622D01*
Y2052574D01*
X265558Y2054510D01*
X500877D01*
X502454Y2052454D01*
X510522Y2046264D01*
X519918Y2042372D01*
X530000Y2041045D01*
X540082Y2042372D01*
X549478Y2046264D01*
X557546Y2052454D01*
X563736Y2060522D01*
X567628Y2069918D01*
X568955Y2080000D01*
X567628Y2090082D01*
X563736Y2099478D01*
X557546Y2107546D01*
X549478Y2113736D01*
X540082Y2117628D01*
X530000Y2118955D01*
D02*
G37*
G36*
X1545000Y2079657D02*
X1533361Y2078511D01*
X1522170Y2075116D01*
X1511856Y2069603D01*
X1502816Y2062184D01*
X1495397Y2053144D01*
X1489884Y2042830D01*
X1486489Y2031639D01*
X1485343Y2020000D01*
X1486489Y2008361D01*
X1489884Y1997170D01*
X1495397Y1986856D01*
X1502816Y1977816D01*
X1511856Y1970397D01*
X1522170Y1964884D01*
X1533361Y1961489D01*
X1545000Y1960343D01*
X1556639Y1961489D01*
X1567830Y1964884D01*
X1578144Y1970397D01*
X1587184Y1977816D01*
X1594603Y1986856D01*
X1600116Y1997170D01*
X1603511Y2008361D01*
X1604657Y2020000D01*
X1603511Y2031639D01*
X1600116Y2042830D01*
X1594603Y2053144D01*
X1587184Y2062184D01*
X1578144Y2069603D01*
X1567830Y2075116D01*
X1556639Y2078511D01*
X1545000Y2079657D01*
D02*
G37*
G36*
X2315000Y2035941D02*
X2304404Y2034546D01*
X2294530Y2030456D01*
X2286050Y2023949D01*
X2279544Y2015470D01*
X2275454Y2005596D01*
X2274059Y1995000D01*
X2275454Y1984404D01*
X2279544Y1974530D01*
X2286050Y1966051D01*
X2294530Y1959544D01*
X2304404Y1955454D01*
X2315000Y1954059D01*
X2325596Y1955454D01*
X2335470Y1959544D01*
X2343950Y1966051D01*
X2350456Y1974530D01*
X2354546Y1984404D01*
X2355941Y1995000D01*
X2354546Y2005596D01*
X2350456Y2015470D01*
X2343950Y2023949D01*
X2335470Y2030456D01*
X2325596Y2034546D01*
X2315000Y2035941D01*
D02*
G37*
G36*
X3020590Y1960591D02*
X2939410D01*
Y1879409D01*
X3020590D01*
Y1960591D01*
D02*
G37*
G36*
X225000Y1988955D02*
X214918Y1987628D01*
X205522Y1983736D01*
X197454Y1977546D01*
X191264Y1969478D01*
X187372Y1960082D01*
X186045Y1950000D01*
X187372Y1939918D01*
X191264Y1930522D01*
X197454Y1922454D01*
X205522Y1916264D01*
X214918Y1912372D01*
X225000Y1911045D01*
X230755Y1911802D01*
X263778Y1878778D01*
X271221Y1873805D01*
X280000Y1872059D01*
X1678921D01*
X1682454Y1867454D01*
X1690522Y1861264D01*
X1699918Y1857372D01*
X1710000Y1856045D01*
X1720082Y1857372D01*
X1729478Y1861264D01*
X1737546Y1867454D01*
X1743736Y1875522D01*
X1747628Y1884918D01*
X1748955Y1895000D01*
X1747628Y1905082D01*
X1743736Y1914478D01*
X1737546Y1922546D01*
X1729478Y1928736D01*
X1720082Y1932628D01*
X1710000Y1933955D01*
X1699918Y1932628D01*
X1690522Y1928736D01*
X1682454Y1922546D01*
X1678921Y1917941D01*
X289502D01*
X263198Y1944245D01*
X263955Y1950000D01*
X262628Y1960082D01*
X258736Y1969478D01*
X252546Y1977546D01*
X244478Y1983736D01*
X235082Y1987628D01*
X225000Y1988955D01*
D02*
G37*
G36*
Y1888955D02*
X214918Y1887628D01*
X205522Y1883736D01*
X197454Y1877546D01*
X191264Y1869478D01*
X187372Y1860082D01*
X186045Y1850000D01*
X187372Y1839918D01*
X191264Y1830522D01*
X197454Y1822454D01*
X205522Y1816264D01*
X214918Y1812372D01*
X225000Y1811045D01*
X235082Y1812372D01*
X244478Y1816264D01*
X252546Y1822454D01*
X258736Y1830522D01*
X262628Y1839918D01*
X263955Y1850000D01*
X262628Y1860082D01*
X258736Y1869478D01*
X252546Y1877546D01*
X244478Y1883736D01*
X235082Y1887628D01*
X225000Y1888955D01*
D02*
G37*
G36*
X530000Y1818955D02*
X519918Y1817628D01*
X510522Y1813736D01*
X502454Y1807546D01*
X496264Y1799478D01*
X492372Y1790082D01*
X491045Y1780000D01*
X492372Y1769918D01*
X496264Y1760522D01*
X502454Y1752454D01*
X510522Y1746264D01*
X519918Y1742372D01*
X530000Y1741045D01*
X540082Y1742372D01*
X549478Y1746264D01*
X557546Y1752454D01*
X563736Y1760522D01*
X567628Y1769918D01*
X568955Y1780000D01*
X567628Y1790082D01*
X563736Y1799478D01*
X557546Y1807546D01*
X549478Y1813736D01*
X540082Y1817628D01*
X530000Y1818955D01*
D02*
G37*
G36*
X2915000Y1474912D02*
X2903376Y1473381D01*
X2892544Y1468895D01*
X2883243Y1461757D01*
X2876105Y1452456D01*
X2871619Y1441624D01*
X2870088Y1430000D01*
X2871619Y1418376D01*
X2876105Y1407544D01*
X2883243Y1398243D01*
X2892544Y1391105D01*
X2903376Y1386619D01*
X2915000Y1385088D01*
X2926624Y1386619D01*
X2937456Y1391105D01*
X2946757Y1398243D01*
X2953895Y1407544D01*
X2958381Y1418376D01*
X2959912Y1430000D01*
X2958381Y1441624D01*
X2953895Y1452456D01*
X2946757Y1461757D01*
X2937456Y1468895D01*
X2926624Y1473381D01*
X2915000Y1474912D01*
D02*
G37*
G36*
X2615000D02*
X2603376Y1473381D01*
X2592544Y1468895D01*
X2583243Y1461757D01*
X2576105Y1452456D01*
X2571619Y1441624D01*
X2570088Y1430000D01*
X2571619Y1418376D01*
X2576105Y1407544D01*
X2583243Y1398243D01*
X2592544Y1391105D01*
X2603376Y1386619D01*
X2615000Y1385088D01*
X2626624Y1386619D01*
X2637456Y1391105D01*
X2646757Y1398243D01*
X2653895Y1407544D01*
X2658381Y1418376D01*
X2659912Y1430000D01*
X2658381Y1441624D01*
X2653895Y1452456D01*
X2646757Y1461757D01*
X2637456Y1468895D01*
X2626624Y1473381D01*
X2615000Y1474912D01*
D02*
G37*
G36*
Y1374912D02*
X2603376Y1373381D01*
X2592544Y1368895D01*
X2583243Y1361757D01*
X2576105Y1352456D01*
X2571619Y1341624D01*
X2570088Y1330000D01*
X2571619Y1318376D01*
X2576105Y1307544D01*
X2583243Y1298243D01*
X2592544Y1291105D01*
X2603376Y1286619D01*
X2615000Y1285088D01*
X2626624Y1286619D01*
X2637456Y1291105D01*
X2646757Y1298243D01*
X2653895Y1307544D01*
X2658381Y1318376D01*
X2659912Y1330000D01*
X2658381Y1341624D01*
X2653895Y1352456D01*
X2646757Y1361757D01*
X2637456Y1368895D01*
X2626624Y1373381D01*
X2615000Y1374912D01*
D02*
G37*
G36*
Y1274912D02*
X2603376Y1273381D01*
X2592544Y1268895D01*
X2583243Y1261757D01*
X2576105Y1252456D01*
X2571619Y1241624D01*
X2570088Y1230000D01*
X2571619Y1218376D01*
X2576105Y1207544D01*
X2583243Y1198243D01*
X2592544Y1191105D01*
X2603376Y1186619D01*
X2615000Y1185088D01*
X2626624Y1186619D01*
X2637456Y1191105D01*
X2646757Y1198243D01*
X2653895Y1207544D01*
X2658381Y1218376D01*
X2659912Y1230000D01*
X2658381Y1241624D01*
X2653895Y1252456D01*
X2646757Y1261757D01*
X2637456Y1268895D01*
X2626624Y1273381D01*
X2615000Y1274912D01*
D02*
G37*
G36*
X1545000Y1239657D02*
X1533361Y1238511D01*
X1522170Y1235116D01*
X1511856Y1229603D01*
X1502816Y1222184D01*
X1495397Y1213144D01*
X1489884Y1202830D01*
X1486489Y1191639D01*
X1485343Y1180000D01*
X1486489Y1168361D01*
X1489884Y1157170D01*
X1495397Y1146856D01*
X1502816Y1137816D01*
X1511856Y1130397D01*
X1522170Y1124884D01*
X1533361Y1121489D01*
X1545000Y1120343D01*
X1556639Y1121489D01*
X1567830Y1124884D01*
X1578144Y1130397D01*
X1587184Y1137816D01*
X1594603Y1146856D01*
X1600116Y1157170D01*
X1603511Y1168361D01*
X1604657Y1180000D01*
X1603511Y1191639D01*
X1600116Y1202830D01*
X1594603Y1213144D01*
X1587184Y1222184D01*
X1578144Y1229603D01*
X1567830Y1235116D01*
X1556639Y1238511D01*
X1545000Y1239657D01*
D02*
G37*
G36*
X835000D02*
X823361Y1238511D01*
X812170Y1235116D01*
X801856Y1229603D01*
X792816Y1222184D01*
X785397Y1213144D01*
X779884Y1202830D01*
X776489Y1191639D01*
X775343Y1180000D01*
X776489Y1168361D01*
X779884Y1157170D01*
X785397Y1146856D01*
X792816Y1137816D01*
X801856Y1130397D01*
X812170Y1124884D01*
X823361Y1121489D01*
X835000Y1120343D01*
X846639Y1121489D01*
X857830Y1124884D01*
X868144Y1130397D01*
X877184Y1137816D01*
X884603Y1146856D01*
X890116Y1157170D01*
X893511Y1168361D01*
X894657Y1180000D01*
X893511Y1191639D01*
X890116Y1202830D01*
X884603Y1213144D01*
X877184Y1222184D01*
X868144Y1229603D01*
X857830Y1235116D01*
X846639Y1238511D01*
X835000Y1239657D01*
D02*
G37*
G36*
X2355590Y1185591D02*
X2274410D01*
Y1104409D01*
X2355590D01*
Y1185591D01*
D02*
G37*
G36*
X2915000Y1174912D02*
X2903376Y1173381D01*
X2892544Y1168895D01*
X2883243Y1161757D01*
X2876105Y1152456D01*
X2871619Y1141624D01*
X2870088Y1130000D01*
X2871619Y1118376D01*
X2876105Y1107544D01*
X2883243Y1098243D01*
X2892544Y1091105D01*
X2903376Y1086619D01*
X2915000Y1085088D01*
X2926624Y1086619D01*
X2937456Y1091105D01*
X2946757Y1098243D01*
X2953895Y1107544D01*
X2958381Y1118376D01*
X2959912Y1130000D01*
X2958381Y1141624D01*
X2953895Y1152456D01*
X2946757Y1161757D01*
X2937456Y1168895D01*
X2926624Y1173381D01*
X2915000Y1174912D01*
D02*
G37*
G36*
X2615000D02*
X2603376Y1173381D01*
X2592544Y1168895D01*
X2583243Y1161757D01*
X2576105Y1152456D01*
X2571619Y1141624D01*
X2570088Y1130000D01*
X2571619Y1118376D01*
X2576105Y1107544D01*
X2583243Y1098243D01*
X2592544Y1091105D01*
X2603376Y1086619D01*
X2615000Y1085088D01*
X2626624Y1086619D01*
X2637456Y1091105D01*
X2646757Y1098243D01*
X2653895Y1107544D01*
X2658381Y1118376D01*
X2659912Y1130000D01*
X2658381Y1141624D01*
X2653895Y1152456D01*
X2646757Y1161757D01*
X2637456Y1168895D01*
X2626624Y1173381D01*
X2615000Y1174912D01*
D02*
G37*
G36*
X2915000Y1074912D02*
X2903376Y1073381D01*
X2892544Y1068895D01*
X2883243Y1061757D01*
X2876105Y1052456D01*
X2871619Y1041624D01*
X2870088Y1030000D01*
X2871619Y1018376D01*
X2876105Y1007544D01*
X2883243Y998243D01*
X2892544Y991105D01*
X2903376Y986619D01*
X2915000Y985088D01*
X2926624Y986619D01*
X2937456Y991105D01*
X2946757Y998243D01*
X2953895Y1007544D01*
X2958381Y1018376D01*
X2959912Y1030000D01*
X2958381Y1041624D01*
X2953895Y1052456D01*
X2946757Y1061757D01*
X2937456Y1068895D01*
X2926624Y1073381D01*
X2915000Y1074912D01*
D02*
G37*
G36*
X2422166Y998500D02*
X2410419Y996954D01*
X2399472Y992419D01*
X2390072Y985206D01*
X2382859Y975806D01*
X2378324Y964859D01*
X2376778Y953112D01*
X2378324Y941365D01*
X2382859Y930418D01*
X2390072Y921018D01*
X2399472Y913805D01*
X2410419Y909270D01*
X2422166Y907724D01*
X2433913Y909270D01*
X2444860Y913805D01*
X2454260Y921018D01*
X2461473Y930418D01*
X2466008Y941365D01*
X2467554Y953112D01*
X2466008Y964859D01*
X2461473Y975806D01*
X2454260Y985206D01*
X2444860Y992419D01*
X2433913Y996954D01*
X2422166Y998500D01*
D02*
G37*
G36*
X2915000Y974912D02*
X2903376Y973381D01*
X2892544Y968895D01*
X2883243Y961757D01*
X2876105Y952456D01*
X2871619Y941624D01*
X2870088Y930000D01*
X2871619Y918376D01*
X2876105Y907544D01*
X2883243Y898243D01*
X2892544Y891105D01*
X2903376Y886619D01*
X2915000Y885088D01*
X2926624Y886619D01*
X2937456Y891105D01*
X2946757Y898243D01*
X2953895Y907544D01*
X2958381Y918376D01*
X2959912Y930000D01*
X2958381Y941624D01*
X2953895Y952456D01*
X2946757Y961757D01*
X2937456Y968895D01*
X2926624Y973381D01*
X2915000Y974912D01*
D02*
G37*
G36*
X455946Y988308D02*
X347206D01*
Y879568D01*
X455946D01*
Y988308D01*
D02*
G37*
G36*
X598426Y988777D02*
X584232Y986909D01*
X571006Y981430D01*
X559649Y972715D01*
X550934Y961358D01*
X545455Y948131D01*
X543587Y933938D01*
X545455Y919745D01*
X546255Y917815D01*
X471976Y843536D01*
X466450Y835266D01*
X464510Y825512D01*
Y719010D01*
X454031Y710969D01*
X445990Y700490D01*
X434010D01*
X425969Y710969D01*
X415434Y719053D01*
X403166Y724135D01*
X390000Y725868D01*
X376834Y724135D01*
X364566Y719053D01*
X354031Y710969D01*
X345947Y700434D01*
X340865Y688166D01*
X339132Y675000D01*
X340865Y661834D01*
X345947Y649566D01*
X354031Y639031D01*
X364566Y630947D01*
X376834Y625865D01*
X390000Y624132D01*
X403166Y625865D01*
X415434Y630947D01*
X425969Y639031D01*
X434010Y649510D01*
X445990D01*
X454031Y639031D01*
X464566Y630947D01*
X476834Y625865D01*
X490000Y624132D01*
X503166Y625865D01*
X515434Y630947D01*
X525969Y639031D01*
X534053Y649566D01*
X537294Y657390D01*
X542706D01*
X545947Y649566D01*
X554031Y639031D01*
X564566Y630947D01*
X576834Y625865D01*
X590000Y624132D01*
X603166Y625865D01*
X615434Y630947D01*
X625969Y639031D01*
X634053Y649566D01*
X635086Y652059D01*
X644914D01*
X645947Y649566D01*
X654031Y639031D01*
X664566Y630947D01*
X676834Y625865D01*
X690000Y624132D01*
X703166Y625865D01*
X715434Y630947D01*
X725969Y639031D01*
X734053Y649566D01*
X734567Y650806D01*
X739567Y649812D01*
Y624567D01*
X840433D01*
Y725433D01*
X739567D01*
Y700188D01*
X734567Y699194D01*
X734053Y700434D01*
X725969Y710969D01*
X715434Y719053D01*
X703166Y724135D01*
X690000Y725868D01*
X676834Y724135D01*
X664566Y719053D01*
X654031Y710969D01*
X645947Y700434D01*
X644914Y697941D01*
X635086D01*
X634053Y700434D01*
X625969Y710969D01*
X615434Y719053D01*
X603166Y724135D01*
X590000Y725868D01*
X576834Y724135D01*
X564566Y719053D01*
X554031Y710969D01*
X545947Y700434D01*
X542706Y692610D01*
X537294D01*
X534053Y700434D01*
X525969Y710969D01*
X515490Y719010D01*
Y814954D01*
X582303Y881767D01*
X584232Y880967D01*
X598426Y879099D01*
X612620Y880967D01*
X625846Y886446D01*
X637203Y895161D01*
X645918Y906518D01*
X651397Y919745D01*
X653265Y933938D01*
X651397Y948131D01*
X645918Y961358D01*
X637203Y972715D01*
X625846Y981430D01*
X612620Y986909D01*
X598426Y988777D01*
D02*
G37*
G36*
X1953426Y988775D02*
X1939233Y986907D01*
X1926006Y981428D01*
X1914649Y972713D01*
X1905934Y961356D01*
X1900455Y948130D01*
X1898587Y933936D01*
X1900455Y919742D01*
X1905934Y906516D01*
X1914649Y895159D01*
X1926006Y886444D01*
X1939233Y880965D01*
X1953426Y879097D01*
X1967620Y880965D01*
X1980846Y886444D01*
X1992203Y895159D01*
X2000918Y906516D01*
X2001718Y908446D01*
X2235506D01*
X2300769Y843183D01*
X2299691Y835000D01*
X2301235Y823273D01*
X2305761Y812346D01*
X2312962Y802962D01*
X2313335Y802676D01*
X2311728Y797941D01*
X2261816D01*
X2257528Y803528D01*
X2249173Y809940D01*
X2239442Y813971D01*
X2229000Y815345D01*
X2218558Y813971D01*
X2208827Y809940D01*
X2200472Y803528D01*
X2194060Y795173D01*
X2190030Y785442D01*
X2188655Y775000D01*
X2190030Y764558D01*
X2194060Y754827D01*
X2200472Y746472D01*
X2208827Y740060D01*
X2218558Y736029D01*
X2229000Y734655D01*
X2239442Y736029D01*
X2249173Y740060D01*
X2257528Y746472D01*
X2261816Y752059D01*
X2309146D01*
X2311528Y747059D01*
X2305761Y739544D01*
X2301235Y728617D01*
X2299691Y716890D01*
X2301235Y705163D01*
X2305761Y694236D01*
X2312962Y684852D01*
X2322346Y677651D01*
X2333273Y673125D01*
X2345000Y671581D01*
X2356369Y673078D01*
X2415668Y613778D01*
X2423111Y608806D01*
X2431890Y607059D01*
X2576477D01*
X2583243Y598243D01*
X2592544Y591105D01*
X2603376Y586619D01*
X2615000Y585088D01*
X2626624Y586619D01*
X2637456Y591105D01*
X2646757Y598243D01*
X2653895Y607544D01*
X2658381Y618376D01*
X2659912Y630000D01*
X2658381Y641624D01*
X2653895Y652456D01*
X2646757Y661757D01*
X2637456Y668895D01*
X2626624Y673381D01*
X2615000Y674912D01*
X2603376Y673381D01*
X2592544Y668895D01*
X2583243Y661757D01*
X2576477Y652941D01*
X2441392D01*
X2388812Y705521D01*
X2390309Y716890D01*
X2388765Y728617D01*
X2384239Y739544D01*
X2378472Y747059D01*
X2380854Y752059D01*
X2560000D01*
X2568779Y753806D01*
X2573006Y756630D01*
X2576470Y752931D01*
X2576105Y752456D01*
X2571619Y741624D01*
X2570088Y730000D01*
X2571619Y718376D01*
X2576105Y707544D01*
X2583243Y698243D01*
X2592544Y691105D01*
X2603376Y686619D01*
X2615000Y685088D01*
X2626624Y686619D01*
X2637456Y691105D01*
X2646757Y698243D01*
X2653895Y707544D01*
X2658381Y718376D01*
X2659912Y730000D01*
X2658381Y741624D01*
X2653895Y752456D01*
X2646757Y761757D01*
X2637456Y768895D01*
X2626624Y773381D01*
X2615000Y774912D01*
X2603376Y773381D01*
X2594021Y769506D01*
X2591188Y773745D01*
X2603982Y786539D01*
X2615000Y785088D01*
X2626624Y786619D01*
X2637456Y791105D01*
X2646757Y798243D01*
X2653895Y807544D01*
X2658381Y818376D01*
X2659912Y830000D01*
X2658381Y841624D01*
X2657055Y844826D01*
X2661294Y847658D01*
X2696976Y811976D01*
X2705245Y806451D01*
X2715000Y804510D01*
X2878433D01*
X2883243Y798243D01*
X2892544Y791105D01*
X2903376Y786619D01*
X2915000Y785088D01*
X2926624Y786619D01*
X2937456Y791105D01*
X2946757Y798243D01*
X2953895Y807544D01*
X2958381Y818376D01*
X2959912Y830000D01*
X2958381Y841624D01*
X2953895Y852456D01*
X2946757Y861757D01*
X2937456Y868895D01*
X2926624Y873381D01*
X2915000Y874912D01*
X2903376Y873381D01*
X2892544Y868895D01*
X2883243Y861757D01*
X2878433Y855490D01*
X2725558D01*
X2658881Y922168D01*
X2659912Y930000D01*
X2658381Y941624D01*
X2653895Y952456D01*
X2646757Y961757D01*
X2637456Y968895D01*
X2626624Y973381D01*
X2615000Y974912D01*
X2603376Y973381D01*
X2592544Y968895D01*
X2583243Y961757D01*
X2576105Y952456D01*
X2571619Y941624D01*
X2570088Y930000D01*
X2571119Y922168D01*
X2509442Y860490D01*
X2382063D01*
X2377038Y867038D01*
X2367654Y874239D01*
X2356727Y878765D01*
X2345000Y880309D01*
X2336817Y879231D01*
X2264088Y951960D01*
X2255818Y957486D01*
X2246064Y959426D01*
X2001718D01*
X2000918Y961356D01*
X1992203Y972713D01*
X1980846Y981428D01*
X1967620Y986907D01*
X1953426Y988775D01*
D02*
G37*
G36*
X1980000Y832926D02*
X1968890Y831463D01*
X1958537Y827175D01*
X1949647Y820353D01*
X1942825Y811463D01*
X1938536Y801110D01*
X1937074Y790000D01*
X1938536Y778890D01*
X1942825Y768537D01*
X1949647Y759647D01*
X1958537Y752825D01*
X1968890Y748537D01*
X1980000Y747074D01*
X1991110Y748537D01*
X2001463Y752825D01*
X2010353Y759647D01*
X2017175Y768537D01*
X2021464Y778890D01*
X2022926Y790000D01*
X2021464Y801110D01*
X2017175Y811463D01*
X2010353Y820353D01*
X2001463Y827175D01*
X1991110Y831463D01*
X1980000Y832926D01*
D02*
G37*
G36*
X1278426Y785903D02*
X1264233Y784035D01*
X1251006Y778556D01*
X1239649Y769841D01*
X1230934Y758484D01*
X1225455Y745258D01*
X1223587Y731064D01*
X1225455Y716870D01*
X1230934Y703644D01*
X1239649Y692287D01*
X1251006Y683572D01*
X1264233Y678093D01*
X1278426Y676225D01*
X1292620Y678093D01*
X1305846Y683572D01*
X1317203Y692287D01*
X1325918Y703644D01*
X1331397Y716870D01*
X1333265Y731064D01*
X1331397Y745258D01*
X1325918Y758484D01*
X1317203Y769841D01*
X1305846Y778556D01*
X1292620Y784035D01*
X1278426Y785903D01*
D02*
G37*
G36*
X1081574D02*
X1067380Y784035D01*
X1054154Y778556D01*
X1042797Y769841D01*
X1034082Y758484D01*
X1028603Y745258D01*
X1026735Y731064D01*
X1028603Y716870D01*
X1034082Y703644D01*
X1042797Y692287D01*
X1054154Y683572D01*
X1067380Y678093D01*
X1081574Y676225D01*
X1095767Y678093D01*
X1108994Y683572D01*
X1120351Y692287D01*
X1129066Y703644D01*
X1134545Y716870D01*
X1136413Y731064D01*
X1134545Y745258D01*
X1129066Y758484D01*
X1120351Y769841D01*
X1108994Y778556D01*
X1095767Y784035D01*
X1081574Y785903D01*
D02*
G37*
G36*
X1730000Y638919D02*
X1718633Y637423D01*
X1708040Y633035D01*
X1698944Y626055D01*
X1691965Y616960D01*
X1687577Y606367D01*
X1686081Y595000D01*
X1687577Y583633D01*
X1691965Y573040D01*
X1698944Y563945D01*
X1708040Y556965D01*
X1718633Y552577D01*
X1730000Y551081D01*
X1741367Y552577D01*
X1751959Y556965D01*
X1761055Y563945D01*
X1768035Y573040D01*
X1772422Y583633D01*
X1773919Y595000D01*
X1772422Y606367D01*
X1768035Y616960D01*
X1761055Y626055D01*
X1751959Y633035D01*
X1741367Y637423D01*
X1730000Y638919D01*
D02*
G37*
G36*
X1773543Y538543D02*
X1686457D01*
Y451457D01*
X1773543D01*
Y538543D01*
D02*
G37*
G36*
X337166Y456810D02*
X325285Y455246D01*
X314214Y450661D01*
X304707Y443365D01*
X297411Y433858D01*
X292826Y422787D01*
X291262Y410906D01*
X292826Y399025D01*
X297411Y387954D01*
X304707Y378447D01*
X314214Y371151D01*
X325285Y366566D01*
X337166Y365002D01*
X349047Y366566D01*
X360118Y371151D01*
X369625Y378447D01*
X376921Y387954D01*
X381506Y399025D01*
X383070Y410906D01*
X381506Y422787D01*
X376921Y433858D01*
X369625Y443365D01*
X360118Y450661D01*
X349047Y455246D01*
X337166Y456810D01*
D02*
G37*
G36*
X2915000Y274912D02*
X2903376Y273381D01*
X2892544Y268895D01*
X2883243Y261757D01*
X2876105Y252456D01*
X2871619Y241624D01*
X2870088Y230000D01*
X2871619Y218376D01*
X2876105Y207544D01*
X2883243Y198243D01*
X2892544Y191105D01*
X2903376Y186619D01*
X2915000Y185088D01*
X2926624Y186619D01*
X2937456Y191105D01*
X2946757Y198243D01*
X2953895Y207544D01*
X2958381Y218376D01*
X2959912Y230000D01*
X2958381Y241624D01*
X2953895Y252456D01*
X2946757Y261757D01*
X2937456Y268895D01*
X2926624Y273381D01*
X2915000Y274912D01*
D02*
G37*
G36*
X2920000Y127926D02*
X2908890Y126463D01*
X2898537Y122175D01*
X2889647Y115353D01*
X2882825Y106463D01*
X2878537Y96110D01*
X2877074Y85000D01*
X2878537Y73890D01*
X2882825Y63537D01*
X2889647Y54647D01*
X2898537Y47825D01*
X2908890Y43536D01*
X2920000Y42074D01*
X2931110Y43536D01*
X2941463Y47825D01*
X2950353Y54647D01*
X2957175Y63537D01*
X2961463Y73890D01*
X2962926Y85000D01*
X2961463Y96110D01*
X2957175Y106463D01*
X2950353Y115353D01*
X2941463Y122175D01*
X2931110Y126463D01*
X2920000Y127926D01*
D02*
G37*
G36*
X3055000Y139657D02*
X3043361Y138511D01*
X3032170Y135116D01*
X3021856Y129603D01*
X3012816Y122184D01*
X3005397Y113144D01*
X2999884Y102830D01*
X2996489Y91639D01*
X2995343Y80000D01*
X2996489Y68361D01*
X2999884Y57170D01*
X3005397Y46856D01*
X3012816Y37816D01*
X3021856Y30397D01*
X3032170Y24884D01*
X3043361Y21489D01*
X3055000Y20343D01*
X3066639Y21489D01*
X3077830Y24884D01*
X3088144Y30397D01*
X3097184Y37816D01*
X3104603Y46856D01*
X3110116Y57170D01*
X3113511Y68361D01*
X3114657Y80000D01*
X3113511Y91639D01*
X3110116Y102830D01*
X3104603Y113144D01*
X3097184Y122184D01*
X3088144Y129603D01*
X3077830Y135116D01*
X3066639Y138511D01*
X3055000Y139657D01*
D02*
G37*
%LPD*%
G36*
X2572945Y844826D02*
X2571619Y841624D01*
X2570088Y830000D01*
X2571539Y818982D01*
X2550498Y797941D01*
X2378272D01*
X2376665Y802676D01*
X2377038Y802962D01*
X2382063Y809510D01*
X2520000D01*
X2529755Y811451D01*
X2538024Y816976D01*
X2568706Y847658D01*
X2572945Y844826D01*
D02*
G37*
D10*
X2642972Y1582028D02*
X2735000Y1490000D01*
Y1410000D02*
X2915000Y1230000D01*
X2735000Y1410000D02*
Y1490000D01*
X2670000Y211422D02*
Y275000D01*
X2636550Y177972D02*
X2670000Y211422D01*
X2580028Y177972D02*
X2632972D01*
X2632972Y177972D01*
X2636550D01*
X2615000Y330000D02*
X2670000Y275000D01*
X2682972Y147972D02*
X2730000Y195000D01*
X2376000Y309000D02*
X2537028Y147972D01*
X2682972D01*
X2730000Y195000D02*
Y345000D01*
X2915000Y530000D01*
X3044376Y728012D02*
X3046364Y730000D01*
X3038287Y721923D02*
X3044376Y728012D01*
X3046364Y730000D02*
X3055000D01*
X3044376Y728012D02*
X3048012D01*
X2916988D02*
X3044376D01*
X3048012D02*
X3050000Y726024D01*
X2915000Y730000D02*
X2916988Y728012D01*
X2952945Y603976D02*
X3050000D01*
X2926921Y630000D02*
X2952945Y603976D01*
X2915000Y630000D02*
X2926921D01*
X3104000Y519000D02*
Y1448000D01*
X2915000Y330000D02*
X3104000Y519000D01*
X2907000Y1645000D02*
X3104000Y1448000D01*
X2413780Y530000D02*
X2615000D01*
X2345000Y598780D02*
X2413780Y530000D01*
X2345000Y480670D02*
X2564330D01*
X2615000Y430000D01*
X2832972Y1612028D02*
X2915000Y1530000D01*
X2362028Y1612028D02*
X2832972D01*
X2315000Y1565000D02*
X2362028Y1612028D01*
X2765000Y280000D02*
X2915000Y430000D01*
X2765000Y94000D02*
Y280000D01*
X2693488Y22488D02*
X2765000Y94000D01*
X2305512Y22488D02*
X2693488D01*
X2027190Y300810D02*
X2305512Y22488D01*
X1143446Y300810D02*
X2027190D01*
X1081574Y238938D02*
X1143446Y300810D01*
X1081576Y933938D02*
X1158514Y857000D01*
X1720000D01*
X1925000Y652000D01*
Y470000D02*
Y652000D01*
Y470000D02*
X1985000Y410000D01*
X2128000D01*
X2229000Y309000D01*
X2376000D01*
X1756576Y1426062D02*
X1933638Y1249000D01*
X2300000D01*
X2463000Y1412000D01*
Y1482028D01*
X2563000Y1582028D01*
X2642972D01*
X2431890Y630000D02*
X2615000D01*
X2345000Y716890D02*
X2431890Y630000D01*
X2423000Y422000D02*
X2615000Y230000D01*
X2268000Y422000D02*
X2423000D01*
X2200000Y490000D02*
X2268000Y422000D01*
X1980000Y490000D02*
X2200000D01*
X280000Y1895000D02*
X1710000D01*
X225000Y1950000D02*
X280000Y1895000D01*
X2345000Y362560D02*
X2395440D01*
X2580028Y177972D01*
X2560000Y775000D02*
X2615000Y830000D01*
X2229000Y775000D02*
X2560000D01*
X1143638Y1711000D02*
X2899000D01*
X1081576Y1648938D02*
X1143638Y1711000D01*
X534000Y251000D02*
X610000Y175000D01*
X330972Y251000D02*
X534000D01*
X181960Y101988D02*
X330972Y251000D01*
X138040Y101988D02*
X181960D01*
X106000Y134028D02*
X138040Y101988D01*
X106000Y134028D02*
Y824000D01*
X312000Y1030000D01*
X2615000D01*
X401576Y1426064D02*
X467640Y1360000D01*
X1407000D01*
X1692000Y1645000D01*
X2907000D01*
X2320000Y1830000D02*
X2620000D01*
X2000000Y2150000D02*
X2320000Y1830000D01*
X160000Y155000D02*
X335810Y330810D01*
X2143190D01*
X2421512Y52488D01*
X2587488D01*
X2620000Y85000D01*
X590000Y675000D02*
X690000D01*
D11*
X1215000Y165000D02*
X1780000D01*
X1145000Y95000D02*
X1215000Y165000D01*
X255000Y2080000D02*
X530000D01*
X225000Y2050000D02*
X255000Y2080000D01*
X490000Y675000D02*
Y825512D01*
X598426Y933938D01*
X1953426Y933936D02*
X2246064D01*
X2345000Y835000D01*
X2715000Y830000D02*
X2915000D01*
X2615000Y930000D02*
X2715000Y830000D01*
X2345000Y835000D02*
X2520000D01*
X2615000Y930000D01*
X2140000Y1765000D02*
X2315000D01*
X2010000Y1895000D02*
X2140000Y1765000D01*
X2034488Y1345000D02*
X2315000D01*
X1953426Y1426062D02*
X2034488Y1345000D01*
X2395000Y2115000D02*
X2525000D01*
X2315000Y2195000D02*
X2395000Y2115000D01*
X1498936Y2150000D02*
X1700000D01*
X1278426Y2141064D02*
X1498936Y2150000D01*
X1213490Y1491000D02*
X1278426Y1426064D01*
X663362Y1491000D02*
X1213490D01*
X598426Y1426064D02*
X663362Y1491000D01*
X1955000Y1895000D02*
X2010000D01*
X1700000Y2150000D02*
X1955000Y1895000D01*
X2720000Y1830000D02*
X2870000D01*
X2980000Y1720000D01*
X2315000Y1765000D02*
X2655000D01*
X2720000Y1830000D01*
X810000Y175000D02*
X890000Y95000D01*
X1145000D01*
X337166Y155000D02*
X359666Y132500D01*
X467500D01*
X510000Y175000D01*
X710000D02*
X810000D01*
X390000Y675000D02*
X490000D01*
D13*
X2525000Y2115000D02*
D03*
X2625000D02*
D03*
X2725000D02*
D03*
X390000Y675000D02*
D03*
X690000D02*
D03*
X590000D02*
D03*
X490000D02*
D03*
X510000Y175000D02*
D03*
X610000D02*
D03*
X710000D02*
D03*
D14*
X2825000Y2115000D02*
D03*
X790000Y675000D02*
D03*
X810000Y175000D02*
D03*
D15*
X1081574Y238938D02*
D03*
X401576Y933938D02*
D03*
X1081576D02*
D03*
Y1648938D02*
D03*
X1756576Y933936D02*
D03*
D16*
X1081574Y731064D02*
D03*
X1278426Y238938D02*
D03*
Y731064D02*
D03*
X598426Y1426064D02*
D03*
Y933938D02*
D03*
X401576Y1426064D02*
D03*
X1278426D02*
D03*
Y933938D02*
D03*
X1081576Y1426064D02*
D03*
X1278426Y2141064D02*
D03*
Y1648938D02*
D03*
X1081576Y2141064D02*
D03*
X1953426Y1426062D02*
D03*
Y933936D02*
D03*
X1756576Y1426062D02*
D03*
D17*
X2010000Y1895000D02*
D03*
X1710000D02*
D03*
X530000Y1780000D02*
D03*
Y2080000D02*
D03*
X2000000Y2150000D02*
D03*
X1700000D02*
D03*
X225000Y1850000D02*
D03*
Y1950000D02*
D03*
D18*
X1730000Y495000D02*
D03*
D19*
Y595000D02*
D03*
D20*
X2345000Y598780D02*
D03*
Y362560D02*
D03*
Y480670D02*
D03*
Y716890D02*
D03*
Y835000D02*
D03*
D21*
X2422166Y126340D02*
D03*
Y953112D02*
D03*
D22*
X2345000Y244450D02*
D03*
D23*
X2980000Y1720000D02*
D03*
X2315000Y1995000D02*
D03*
Y1565000D02*
D03*
Y1345000D02*
D03*
D24*
X2980000Y1920000D02*
D03*
X2315000Y2195000D02*
D03*
Y1765000D02*
D03*
Y1145000D02*
D03*
D25*
X65000Y2282204D02*
D03*
Y80000D02*
D03*
X835000Y1180000D02*
D03*
X1545000D02*
D03*
Y2020000D02*
D03*
X3052796Y2280000D02*
D03*
X3055000Y80000D02*
D03*
D26*
X2915000Y1530000D02*
D03*
X2620000Y1830000D02*
D03*
D27*
X2915000Y1430000D02*
D03*
Y1330000D02*
D03*
Y1230000D02*
D03*
Y1130000D02*
D03*
Y1030000D02*
D03*
Y930000D02*
D03*
Y830000D02*
D03*
Y730000D02*
D03*
Y630000D02*
D03*
Y530000D02*
D03*
Y430000D02*
D03*
Y330000D02*
D03*
Y230000D02*
D03*
X2615000Y1530000D02*
D03*
Y1430000D02*
D03*
Y1330000D02*
D03*
Y1230000D02*
D03*
Y1130000D02*
D03*
Y1030000D02*
D03*
Y930000D02*
D03*
Y830000D02*
D03*
Y730000D02*
D03*
Y630000D02*
D03*
Y530000D02*
D03*
Y430000D02*
D03*
Y330000D02*
D03*
Y230000D02*
D03*
X2720000Y1830000D02*
D03*
D28*
X3050000Y603976D02*
D03*
Y726024D02*
D03*
D29*
X2620000Y85000D02*
D03*
X2920000D02*
D03*
X1445000Y95000D02*
D03*
X1980000Y790000D02*
D03*
Y490000D02*
D03*
X1145000Y95000D02*
D03*
D30*
X225000Y2050000D02*
D03*
D31*
X337166Y155000D02*
D03*
X160000D02*
D03*
X337166Y410906D02*
D03*
D32*
X160000D02*
D03*
D33*
X1980000Y165000D02*
D03*
D34*
X1880000D02*
D03*
X1780000D02*
D03*
D35*
X2229000Y775000D02*
D03*
X2899000Y1711000D02*
D03*
%TF.MD5,14e55f3ea22a00092d0d0c53e9ca785d*%
M02*
